<svg width="40" height="40" viewBox="0 0 40 40" fill="none" xmlns="http://www.w3.org/2000/svg">
<circle cx="20" cy="20" r="20" fill="#F7F6F9"/>
<g clip-path="url(#clip0_9863_80163)">
<path d="M8 24.931H32L26.2183 16.6357L23.6888 20.2576L20.0151 15L16.3112 20.2576L13.8118 16.6065L8 24.931Z" fill="url(#paint0_linear_9863_80163)"/>
<path d="M26.7839 24.6974L26.603 24.4637H31.0352L27.3266 19.1477L25.0955 22.273L23.799 20.4329L26.2111 17.0446L31.5779 24.6974H26.7839Z" fill="#F7F6F9"/>
<path d="M19.1558 24.6974H8.42211L13.804 17.0446L19.1558 24.6974Z" fill="#F7F6F9"/>
<path d="M26.5729 24.6974L20.0106 15.4089L16.4422 20.4037L18.1357 22.828L21.4924 17.9501L25.9983 24.4637H19.2546L19.4058 24.6974H26.5729Z" fill="#F7F6F9"/>
<path d="M18.6734 24.4637L14.9347 19.1477L11.196 24.4637H18.6734Z" fill="url(#paint1_linear_9863_80163)"/>
</g>
<defs>
<linearGradient id="paint0_linear_9863_80163" x1="20" y1="13.2812" x2="20" y2="27.9867" gradientUnits="userSpaceOnUse">
<stop offset="0.182292" stop-color="#E51E28"/>
<stop offset="1" stop-color="#FFD6D8"/>
</linearGradient>
<linearGradient id="paint1_linear_9863_80163" x1="20" y1="13.2812" x2="20" y2="27.9867" gradientUnits="userSpaceOnUse">
<stop offset="0.182292" stop-color="#E51E28"/>
<stop offset="1" stop-color="#FFD6D8"/>
</linearGradient>
<clipPath id="clip0_9863_80163">
<rect width="24" height="24" fill="white" transform="translate(8 8)"/>
</clipPath>
</defs>
</svg>
