<svg width="40" height="40" viewBox="0 0 40 40" fill="none" xmlns="http://www.w3.org/2000/svg">
<circle cx="20" cy="20" r="20" fill="#F7F6F9"/>
<path d="M23.6321 17C21.928 17 20.4051 17.7667 20.4051 19.1832C20.4051 20.8078 23.106 20.92 23.106 21.7361C23.106 22.0797 22.6523 22.3873 21.8775 22.3873C20.7778 22.3873 19.9559 21.9575 19.9559 21.9575L19.6043 23.3869C19.6043 23.3869 20.551 23.75 21.8081 23.75C23.6712 23.75 25.1372 22.9457 25.1372 21.5049C25.1372 19.7883 22.4251 19.6794 22.4251 18.9219C22.4251 18.6528 22.7976 18.3578 23.5702 18.3578C24.4419 18.3578 25.1532 18.6704 25.1532 18.6704L25.4973 17.2898C25.4973 17.2898 24.7235 17 23.6321 17ZM8.04126 17.1042L8 17.3126C8 17.3126 8.71692 17.4265 9.36261 17.6537C10.194 17.9142 10.2532 18.0659 10.3932 18.5369L11.919 23.6425H13.9644L17.1153 17.1042H15.0747L13.05 21.5497L12.2238 17.7815C12.1481 17.3502 11.7643 17.1042 11.2945 17.1042H8.04126ZM17.9359 17.1042L16.3351 23.6425H18.281L19.8762 17.1042H17.9359ZM28.789 17.1042C28.3198 17.1042 28.0711 17.3223 27.8887 17.7033L25.0378 23.6425H27.0785L27.4733 22.6527H29.9594L30.1994 23.6425H32L30.4292 17.1042H28.789ZM29 19.1635L29.6593 21.3242H28.0388L29 19.1635Z" fill="url(#paint0_linear_9863_80137)"/>
<defs>
<linearGradient id="paint0_linear_9863_80137" x1="20" y1="15.8317" x2="20" y2="25.8269" gradientUnits="userSpaceOnUse">
<stop stop-color="#E51E28"/>
<stop offset="1" stop-color="#FFD6D8"/>
</linearGradient>
</defs>
</svg>
