<svg width="29" height="28" viewBox="0 0 29 28" fill="none" xmlns="http://www.w3.org/2000/svg">
<path d="M4.5 15C2.84315 15 1.5 13.6569 1.5 12L1.5 10C1.5 8.34315 2.84315 7 4.5 7C6.15685 7 7.5 8.34315 7.5 10L7.5 12C7.5 13.6569 6.15685 15 4.5 15Z" fill="#D8D8DC"/>
<path d="M14.5 18C12.8431 18 11.5 16.6569 11.5 15L11.5 13C11.5 11.3431 12.8431 10 14.5 10C16.1569 10 17.5 11.3431 17.5 13L17.5 15C17.5 16.6569 16.1569 18 14.5 18Z" fill="#D8D8DC"/>
<path d="M24.5 21C22.8431 21 21.5 19.6569 21.5 18L21.5 16C21.5 14.3431 22.8431 13 24.5 13C26.1569 13 27.5 14.3431 27.5 16L27.5 18C27.5 19.6569 26.1569 21 24.5 21Z" fill="#D8D8DC"/>
</svg>
