<svg width="117" height="65" viewBox="0 0 117 65" fill="none" xmlns="http://www.w3.org/2000/svg">
<g clip-path="url(#clip0_204_32473)">
<path fill-rule="evenodd" clip-rule="evenodd" d="M47.7965 23.5801C47.483 23.8845 47.4538 24.0968 47.6359 24.7593L47.8036 25.37L48.8871 25.0683L49.9703 24.7666L49.6811 23.893L49.3919 23.0194L48.6962 23.2006C48.3139 23.3001 47.909 23.471 47.7965 23.5801ZM28.7642 29.2408C27.4355 30.4564 27.1717 32.1077 27.9333 34.4429C28.425 35.951 28.9096 36.619 29.9819 37.2677C30.9933 37.8794 31.7342 37.9594 33.0344 37.5973C34.4151 37.2129 34.9886 36.7411 35.5919 35.4927C36.1271 34.3856 36.1706 33.346 35.7459 31.8209C35.3194 30.2892 34.7463 29.4281 33.6995 28.7461C32.6391 28.0553 31.879 27.9557 30.5202 28.3299C29.6146 28.5793 29.3209 28.7316 28.7642 29.2408ZM43.3416 25.2844L43.0353 25.7431L44.055 29.4054C45.028 32.8997 45.0937 33.0823 45.4886 33.3889C46.0034 33.7885 47.1348 33.7917 48.0663 33.396L48.7232 33.1169L48.5086 32.3459L48.2939 31.575L47.8203 31.7069C47.0687 31.9161 46.9559 31.7687 46.4345 29.8964L45.9629 28.2026L46.6088 28.0228L47.2547 27.8429L47.0548 27.1252L46.855 26.4075L46.2091 26.5873L45.5632 26.7672L45.2434 25.6189L44.9237 24.4705L44.2858 24.6481C43.8182 24.7783 43.566 24.9483 43.3416 25.2844ZM72.7417 21.6109L74.0044 26.1457L76.7537 25.3272C79.1879 24.6025 79.548 24.4611 79.8938 24.094C80.6464 23.2947 80.6031 21.4793 79.8114 20.6273C79.4822 20.273 78.3993 19.9439 77.9631 20.0654C77.5789 20.1724 77.6515 19.8718 78.0621 19.6538C78.9798 19.167 79.2656 17.8506 78.6695 16.8579C77.8379 15.4736 77.4048 15.4261 74.0769 16.3527L71.4789 17.0761L72.7417 21.6109ZM94.471 11.0178C94.3565 11.3417 94.5118 12.0303 95.5062 15.6017L96.6764 19.8041L97.3838 19.6071C97.9772 19.4419 98.122 19.3359 98.2834 18.9491C98.4677 18.5069 98.4284 18.3191 97.3217 14.3447L96.168 10.2014L95.3866 10.419C94.7418 10.5985 94.5817 10.7033 94.471 11.0178ZM32.0409 30.2239C32.6324 30.6284 32.9886 31.392 33.3725 33.0785C33.7324 34.6593 33.6032 35.364 32.8782 35.7762C32.4993 35.9916 32.2985 36.0218 31.9608 35.9142C31.142 35.6532 30.806 35.1386 30.3246 33.4078C29.9484 32.055 29.9071 31.7305 30.0364 31.1435C30.2063 30.3733 30.2969 30.2743 31.0354 30.0513C31.4485 29.9267 31.6588 29.9628 32.0409 30.2239ZM76.474 17.8053C76.9581 18.1602 77.0424 18.7056 76.6925 19.2205C76.5278 19.4625 76.2129 19.6248 75.5485 19.8098L74.6311 20.0652L74.3513 19.0604L74.0715 18.0556L75.0658 17.7787C75.9759 17.5253 76.0955 17.5276 76.474 17.8053ZM39.4209 28.5938C39.1739 28.817 38.9295 29.2496 38.8511 29.6024C38.7756 29.9422 38.6816 30.2296 38.6422 30.2409C38.6028 30.2522 38.4851 29.9546 38.3807 29.5795L38.1908 28.8974L37.186 29.1772L36.1812 29.457L37.4202 33.9067L38.6593 38.3565L39.3563 38.2098C39.9656 38.0814 40.0924 37.994 40.362 37.5163C40.6572 36.9931 40.6555 36.9157 40.321 35.7145L39.9715 34.4595L40.5978 34.8757C41.1596 35.2487 41.3114 35.2751 42.0684 35.1304C42.9533 34.7498 42.9141 34.9663 43.3501 34.1537C43.8573 33.2085 43.8892 32.4188 43.4795 30.9523C42.9987 29.2307 42.1427 28.224 41.043 28.0868C40.3363 27.9985 39.9437 28.1213 39.4209 28.5938ZM54.3868 24.3798C54.1681 24.5575 53.8924 24.9891 53.7746 25.339L53.5598 25.9751L53.3396 25.3579L53.119 24.7406L52.1385 24.9679L51.1575 25.1954L52.0986 28.575L53.0397 31.9549L54.1164 31.6551L55.193 31.3553L54.5335 28.9868C53.9273 26.8097 53.8909 26.5887 54.0813 26.2514C54.1951 26.0495 54.3851 25.8574 54.5036 25.8244C54.622 25.7914 54.884 25.8577 55.0858 25.9717C55.4175 26.1589 55.5062 26.3701 56.0071 28.169C56.5072 29.9651 56.6007 30.1879 56.9644 30.4545C57.3109 30.7088 57.4753 30.7198 58.1459 30.533L58.9252 30.316L58.3178 28.1264C57.6289 25.6438 57.625 25.2111 58.2885 24.9621C59.0801 24.6653 59.1498 24.7606 59.9101 27.1876C60.7175 29.7656 60.7559 29.8063 62.0534 29.445L62.8308 29.2285L61.9886 26.4013C61.046 23.2364 60.9379 23.0568 59.863 22.8707C58.9437 22.7115 58.0874 23.1509 57.6254 24.0192L57.2633 24.7004L56.9093 24.3516C56.5381 23.9859 55.6643 23.7956 55.1108 23.96C54.9316 24.0133 54.6056 24.2023 54.3868 24.3798ZM63.765 21.7545C62.8395 22.3177 62.05 23.7446 62.5757 23.9034C63.0401 24.0438 64.1658 23.6128 64.5198 23.1591C64.9103 22.6589 65.7339 22.37 66.1256 22.596C66.2697 22.6791 66.4618 22.9348 66.552 23.1643C66.7168 23.5812 66.7164 23.5813 65.8098 23.9346C64.523 24.4358 63.8376 24.874 63.4478 25.4444C62.7842 26.415 62.8166 27.3354 63.5425 28.1048C64.615 29.2415 66.8895 28.616 67.4068 27.0421C67.5852 26.4981 67.6025 26.4843 67.6938 26.8118C67.7471 27.0033 67.9313 27.2755 68.1029 27.4166C68.3633 27.6309 68.5504 27.6359 69.2324 27.4461L70.0495 27.2186L69.2527 24.5404C68.3592 21.5361 68.1917 21.2561 67.1606 21.0396C66.3776 20.8751 64.5921 21.2511 63.765 21.7545ZM82.1575 16.6275C81.8191 16.8337 81.4063 17.1579 81.2401 17.3479C80.9001 17.7362 80.6648 18.6245 80.8555 18.8005C80.9243 18.8639 81.3437 18.8147 81.788 18.691C82.4142 18.5167 82.6495 18.3772 82.8354 18.0704C83.1164 17.607 84.042 17.2641 84.4812 17.4605C84.6432 17.5331 84.8278 17.8014 84.9038 18.0743C85.0344 18.5432 85.0202 18.5643 84.4717 18.7171C82.9949 19.1283 81.6328 20.1419 81.3861 21.0132C80.9359 22.6025 82.3489 23.9463 83.9912 23.4904C84.9007 23.2379 85.4885 22.7115 85.7081 21.953L85.8856 21.3407L86.1295 21.8683C86.4343 22.5283 86.6456 22.5918 87.6327 22.3202L88.4231 22.1027L87.6486 19.4974C86.7449 16.4566 86.5621 16.1596 85.4735 15.9623C84.5818 15.8008 82.9902 16.12 82.1575 16.6275ZM91.1954 14.007C90.6323 14.3839 90.4044 14.7234 90.2614 15.3986L90.1035 16.1435L89.8672 15.32L89.6304 14.4965L88.6256 14.7763L87.6207 15.0562L88.56 18.4294L89.4993 21.8026L90.5635 21.5063L91.6278 21.2099L91.0209 18.8428C90.4861 16.7587 90.4363 16.4304 90.6029 16.0977C90.8494 15.6063 91.3679 15.4701 91.7616 15.7937C92.0071 15.9955 92.1903 16.4685 92.6192 18.0088C93.1103 19.7724 93.2044 19.9963 93.5671 20.2624C93.914 20.5166 94.0785 20.5275 94.7491 20.3408L95.5283 20.1238L94.7469 17.3176C93.8504 14.0979 93.7118 13.8598 92.6724 13.746C92.0288 13.6756 91.5694 13.7566 91.1954 14.007ZM48.9426 29.4605L49.882 32.8341L50.6062 32.6325C51.1839 32.4716 51.382 32.3396 51.5847 31.9803C51.8382 31.531 51.8371 31.5241 51.0019 28.5248L50.1651 25.5197L49.0843 25.8031L48.0032 26.0867L48.9426 29.4605ZM98.5633 13.4908C98.1766 14.4134 97.8815 15.2437 97.9076 15.3361C97.9547 15.5053 100.68 18.3509 100.944 18.507C101.022 18.553 101.542 18.443 102.099 18.2627L103.113 17.9346L101.449 16.3479L99.785 14.7612L100.396 13.1151C100.732 12.2096 100.998 11.4398 100.988 11.404C100.978 11.3683 100.587 11.4457 100.118 11.5762L99.2666 11.8133L98.5633 13.4908ZM40.3508 29.9362C40.6567 30.1296 40.7717 30.3899 41.1473 31.7388C41.5605 33.2226 41.5709 33.337 41.3239 33.6841C40.9772 34.1713 40.7413 34.2194 40.1992 33.9133C39.7779 33.6756 39.7214 33.5613 39.3271 32.1453C38.959 30.8231 38.9319 30.5853 39.1128 30.2647C39.3812 29.7892 39.9002 29.6515 40.3508 29.9362ZM77.0758 21.185C77.4353 21.1814 78.0221 21.6894 78.1376 22.1042C78.1727 22.2301 78.087 22.5358 77.947 22.7836C77.7254 23.1766 77.5641 23.27 76.6817 23.5157L75.6703 23.7973L75.3705 22.7207L75.0708 21.6442L75.8968 21.4163C76.3512 21.2909 76.8819 21.1867 77.0758 21.185ZM67.166 25.276C67.3182 26.181 67.0173 26.8254 66.3566 27.0094C65.9225 27.1303 65.3747 26.816 65.252 26.3753C65.0826 25.7669 65.8022 24.8987 66.7228 24.6013C67.0165 24.5063 67.0433 24.5476 67.166 25.276ZM85.4803 20.1446C85.6411 20.7222 85.6304 20.9601 85.4276 21.3193C84.9556 22.1559 83.8693 22.136 83.6328 21.2867C83.4609 20.6695 84.132 19.7748 84.9583 19.5194C85.2494 19.4295 85.2971 19.4866 85.4803 20.1446Z" fill="#006EDC"/>
<path d="M25.6686 34.5588C26.8181 38.6871 24.4034 42.9655 20.2751 44.1151C16.1469 45.2646 11.8684 42.8498 10.7188 38.7216C9.56932 34.5933 11.9841 30.3149 16.1123 29.1653C20.2406 28.0158 24.5191 30.4305 25.6686 34.5588Z" fill="#006EDC"/>
<path d="M22.9149 35.369L12.9426 30.9149L16.271 37.219L16.6612 44.2549L22.9149 35.369Z" fill="white"/>
</g>
<path d="M21.79 55.9438L22.4722 55.7538L21.4208 51.9781L23.5919 51.3735L24.6433 55.1493L25.3255 54.9593L24.123 50.6407L20.5875 51.6252L21.79 55.9438ZM26.3792 51.7192L27.5805 51.3847L28.342 54.1194L29.0034 53.9352L28.0999 50.6903L25.6766 51.3651L26.0836 53.1023C26.1726 53.4908 26.2087 53.762 26.1919 53.9159C26.1771 54.0691 26.0975 54.1659 25.9531 54.2061C25.9096 54.2182 25.8683 54.2265 25.829 54.231C25.7898 54.2356 25.7515 54.2356 25.714 54.2311L25.8759 54.8125C25.9204 54.8192 25.9694 54.8194 26.0231 54.813C26.0772 54.8086 26.1399 54.7965 26.2111 54.7766C26.5235 54.6896 26.7098 54.5057 26.7701 54.2247C26.8323 53.9431 26.8027 53.5423 26.6813 53.0221L26.3792 51.7192ZM29.4442 52.7865C29.5351 53.1128 29.7184 53.3313 29.9943 53.442C30.2721 53.5521 30.5722 53.5623 30.8945 53.4725C31.1753 53.3944 31.3916 53.2798 31.5434 53.1288C31.6973 52.9773 31.7953 52.8243 31.8375 52.6698C31.866 52.7492 31.9024 52.8265 31.9467 52.9015C31.9931 52.9759 32.0382 53.0348 32.0822 53.0779L32.7228 52.8995L32.7096 52.8521C32.6498 52.775 32.5933 52.6831 32.5402 52.5764C32.4885 52.4673 32.4447 52.3484 32.4089 52.2199L31.9778 50.6716C31.8787 50.3157 31.6874 50.0802 31.404 49.9652C31.1206 49.8503 30.7683 49.8514 30.3471 49.9687C29.9239 50.0865 29.615 50.278 29.4204 50.5432C29.2277 50.8077 29.168 51.0715 29.2412 51.3345L29.2454 51.3493L29.9068 51.1652L29.9027 51.1503C29.8674 51.0238 29.8897 50.8972 29.9695 50.7706C30.0513 50.6434 30.2177 50.5449 30.4689 50.4749C30.72 50.405 30.9118 50.4091 31.0444 50.4873C31.1784 50.5629 31.269 50.6857 31.3164 50.8558L31.3874 51.1108L30.64 51.319C30.2089 51.439 29.8789 51.6311 29.6498 51.8951C29.4203 52.1572 29.3517 52.4543 29.4442 52.7865ZM30.0944 52.5735C30.0454 52.3975 30.0817 52.2372 30.2034 52.0925C30.3265 51.9453 30.5333 51.8313 30.824 51.7503L31.5121 51.5587L31.6327 51.9918C31.6784 52.1559 31.6267 52.3375 31.4776 52.5367C31.3305 52.7354 31.1413 52.8669 30.91 52.9313C30.6826 52.9946 30.5013 52.994 30.3661 52.9293C30.2323 52.8622 30.1418 52.7436 30.0944 52.5735ZM32.4122 50.0393L33.4503 49.7502L34.2118 52.4849L34.8732 52.3007L34.1117 49.566L35.1469 49.2778L35.0048 48.7676L32.2701 49.5291L32.4122 50.0393ZM35.8406 50.3343C35.9771 50.8247 36.231 51.1854 36.6022 51.4166C36.9728 51.6458 37.4261 51.6858 37.9619 51.5366C38.2882 51.4457 38.5484 51.3051 38.7425 51.1146C38.9386 50.9237 39.0679 50.7375 39.1303 50.556L38.6028 50.3258C38.5454 50.4717 38.4527 50.6094 38.3247 50.7388C38.1966 50.8682 38.0278 50.9621 37.8182 51.0205C37.4801 51.1146 37.1991 51.0735 36.9753 50.8972C36.7515 50.7209 36.5947 50.4716 36.505 50.1493L36.4785 50.0544C36.3888 49.7321 36.3902 49.4387 36.4828 49.1743C36.5753 48.9099 36.766 48.7375 37.0547 48.6571C37.3513 48.5745 37.5845 48.6012 37.7545 48.7371C37.9239 48.871 38.0413 49.0556 38.1069 49.2909L38.1107 49.2931L36.1649 49.8349L36.3037 50.3332L38.9168 49.6055L38.8424 49.3386C38.7053 48.8462 38.4678 48.4905 38.1298 48.2714C37.7938 48.0518 37.3885 48.008 36.9139 48.1402C36.4453 48.2707 36.1108 48.531 35.9106 48.9213C35.7103 49.3116 35.6781 49.751 35.8141 50.2394L35.8406 50.3343ZM42.2616 50.2434L41.3581 46.9985L40.6996 47.1819L41.6032 50.4268L42.2616 50.2434ZM43.6438 49.8585L44.4417 49.6364L42.3117 48.1393L41.9909 48.6856L43.6438 49.8585ZM41.4055 48.4427L41.5467 48.9499L42.4128 48.7088L43.4195 46.4245L42.7017 46.6244L41.9898 48.28L41.4055 48.4427ZM40.2151 50.8133L41.0179 48.9789L40.4778 48.6691L39.4409 51.0288L40.2151 50.8133ZM41.4055 48.4427L40.8212 48.6054L39.3709 47.5519L38.6293 47.7584L40.6717 49.1936L41.5467 48.9499L41.4055 48.4427ZM46.3162 49.1144L47.8912 48.6758C48.257 48.574 48.5236 48.4103 48.6909 48.1847C48.8582 47.9591 48.9019 47.703 48.8221 47.4163C48.7654 47.2126 48.6551 47.0654 48.4914 46.9746C48.329 46.8813 48.1334 46.8484 47.9046 46.8759L47.9021 46.867C48.0759 46.7718 48.1991 46.648 48.2717 46.4957C48.3438 46.3414 48.3537 46.1703 48.3014 45.9824C48.2237 45.7036 48.062 45.5207 47.8162 45.4336C47.5723 45.346 47.2635 45.3542 46.8898 45.4582L45.4127 45.8695L46.3162 49.1144ZM46.4448 47.0395L46.2094 46.1942L46.9806 45.9795C47.18 45.9303 47.332 45.9253 47.4366 45.9644C47.5407 46.0014 47.612 46.0892 47.6505 46.2276C47.6896 46.368 47.6764 46.4888 47.6109 46.5902C47.5453 46.6915 47.4137 46.7697 47.216 46.8248L46.4448 47.0395ZM46.8313 48.4276L46.5819 47.5319L47.448 47.2907C47.6497 47.2346 47.807 47.2334 47.92 47.2871C48.035 47.3404 48.1123 47.4381 48.1519 47.5805C48.1915 47.7229 48.1756 47.8456 48.1042 47.9486C48.0327 48.0516 47.8971 48.1309 47.6974 48.1865L46.8313 48.4276ZM49.5029 44.7306L48.8414 44.9148L49.745 48.1596L51.139 47.7715C51.5325 47.6619 51.8078 47.4798 51.9649 47.2251C52.1239 46.9699 52.1586 46.6811 52.0688 46.3588C51.978 46.0325 51.7993 45.8042 51.5329 45.6739C51.2685 45.543 50.9395 45.5323 50.546 45.6419L49.8134 45.8458L49.5029 44.7306ZM50.6436 46.1644C50.8651 46.1027 51.0346 46.1109 51.1522 46.189C51.2718 46.2665 51.3539 46.3853 51.3985 46.5455C51.4431 46.7056 51.4348 46.8518 51.3735 46.9839C51.3143 47.1154 51.1739 47.212 50.9525 47.2737L50.2644 47.4653L49.9555 46.356L50.6436 46.1644ZM52.7703 47.3172L53.4318 47.133L52.5282 43.8882L51.8668 44.0724L52.7703 47.3172ZM53.4032 43.6446L54.3068 46.8894L54.9682 46.7052L54.2067 43.9705L55.6601 43.5658L56.4216 46.3005L57.08 46.1172L56.1765 42.8723L53.4032 43.6446ZM57.3325 44.3498C57.4691 44.8402 57.7289 45.1993 58.1119 45.4271C58.4944 45.653 58.9339 45.6969 59.4302 45.5587C59.9245 45.421 60.277 45.1567 60.4878 44.7656C60.6999 44.372 60.7377 43.93 60.6011 43.4396L60.5747 43.3447C60.4387 42.8563 60.1782 42.4985 59.7932 42.2711C59.4101 42.0433 58.9704 41.9985 58.4741 42.1367C57.9798 42.2743 57.6275 42.5397 57.4174 42.9327C57.2072 43.3257 57.1701 43.7665 57.3061 44.2549L57.3325 44.3498ZM57.9824 44.0666C57.8937 43.7482 57.8989 43.457 57.998 43.1929C58.099 42.9283 58.3077 42.7519 58.6241 42.6638C58.9385 42.5763 59.2063 42.6199 59.4276 42.7948C59.6509 42.9692 59.8068 43.2155 59.8955 43.5339L59.9219 43.6288C60.0106 43.9471 60.0044 44.2386 59.9033 44.5033C59.8043 44.7673 59.5976 44.9432 59.2832 45.0307C58.9668 45.1188 58.697 45.0757 58.4737 44.9013C58.2524 44.7265 58.0975 44.4798 58.0088 44.1615L57.9824 44.0666ZM61.8413 41.8447L63.0426 41.5102L63.804 44.2449L64.4655 44.0607L63.5619 40.8158L61.1387 41.4906L61.5457 43.2278C61.6347 43.6163 61.6708 43.8875 61.654 44.0414C61.6391 44.1946 61.5595 44.2914 61.4152 44.3316C61.3717 44.3437 61.3303 44.352 61.2911 44.3565C61.2519 44.3611 61.2135 44.3611 61.1761 44.3566L61.3379 44.9379C61.3824 44.9447 61.4315 44.9449 61.4851 44.9385C61.5393 44.9341 61.602 44.922 61.6731 44.9021C61.9856 44.8151 62.1719 44.6312 62.2322 44.3502C62.2944 44.0686 62.2648 43.6678 62.1434 43.1476L61.8413 41.8447ZM64.4377 40.5752L65.3405 43.817L66.0019 43.6329L65.6162 42.2477L67.0992 41.8348L67.4849 43.2199L68.1434 43.0366L67.2398 39.7917L66.5814 39.9751L66.9572 41.3246L65.4741 41.7376L65.0992 40.391L64.4377 40.5752ZM68.3959 41.2692C68.5325 41.7595 68.7863 42.1203 69.1575 42.3515C69.5281 42.5807 69.9814 42.6206 70.5173 42.4714C70.8435 42.3806 71.1037 42.2399 71.2979 42.0495C71.494 41.8586 71.6232 41.6723 71.6856 41.4909L71.1581 41.2607C71.1007 41.4066 71.008 41.5443 70.88 41.6737C70.752 41.8031 70.5832 41.897 70.3736 41.9553C70.0354 42.0495 69.7545 42.0084 69.5306 41.8321C69.3068 41.6558 69.1501 41.4065 69.0603 41.0842L69.0339 40.9892C68.9441 40.6669 68.9455 40.3736 69.0381 40.1092C69.1307 39.8447 69.3213 39.6723 69.61 39.592C69.9066 39.5094 70.1399 39.536 70.3098 39.6719C70.4792 39.8059 70.5967 39.9905 70.6622 40.2258L70.666 40.228L68.7203 40.7697L68.859 41.268L71.4721 40.5404L71.3978 40.2735C71.2607 39.7811 71.0231 39.4254 70.6851 39.2063C70.3491 38.9866 69.9438 38.9429 69.4693 39.075C69.0006 39.2055 68.6662 39.4659 68.4659 39.8562C68.2656 40.2465 68.2335 40.6858 68.3695 41.1742L68.3959 41.2692ZM71.5741 38.588L72.4768 41.8299L73.1382 41.6457L72.7525 40.2606L74.2355 39.8476L74.6212 41.2328L75.2797 41.0494L74.3761 37.8046L73.7177 37.9879L74.0935 39.3375L72.6104 39.7504L72.2355 38.4039L71.5741 38.588Z" fill="#006EDC"/>
<rect x="0.48537" y="29.8743" width="109.559" height="35.4688" rx="2.75868" transform="rotate(-15.56 0.48537 29.8743)" stroke="#007AFF" stroke-width="0.788195"/>
<defs>
<clipPath id="clip0_204_32473">
<rect width="94.5835" height="15.5495" fill="white" transform="translate(8.63843 31.247) rotate(-15.56)"/>
</clipPath>
</defs>
</svg>
