<svg width="29" height="28" viewBox="0 0 29 28" fill="none" xmlns="http://www.w3.org/2000/svg">
<path d="M26.5 14.6209V21.9998C26.5 23.6567 25.1569 24.9998 23.5 24.9998H18.5C17.9477 24.9998 17.5 24.5521 17.5 23.9998V18.9998C17.5 18.4476 17.0523 17.9998 16.5 17.9998H12.5C11.9477 17.9998 11.5 18.4476 11.5 18.9998V23.9998C11.5 24.5521 11.0523 24.9998 10.5 24.9998H5.5C3.84315 24.9998 2.5 23.6567 2.5 21.9998V14.6209C2.5 12.4382 3.5182 10.3803 5.2534 9.05617L10.8601 4.77758C13.0095 3.13729 15.9905 3.13729 18.1399 4.77758L23.7466 9.05617C25.4818 10.3803 26.5 12.4382 26.5 14.6209Z" fill="#D8D8DC"/>
<path d="M19.2963 5.66024L21.1069 7.04194C20.818 7.18172 20.4913 7.33032 20.1326 7.47884C18.69 8.07616 16.6791 8.69364 14.5 8.69364C12.3209 8.69364 10.3099 8.07616 8.86742 7.47884C8.50871 7.33031 8.182 7.1817 7.89304 7.04192L9.70362 5.66022C11.0027 6.191 12.7119 6.69364 14.5 6.69364C16.2881 6.69364 17.9972 6.19101 19.2963 5.66024Z" fill="white"/>
</svg>
