<svg width="29" height="28" viewBox="0 0 29 28" fill="none" xmlns="http://www.w3.org/2000/svg">
<path d="M2.5 10C2.5 5.58172 6.08172 2 10.5 2H18.5C22.9183 2 26.5 5.58172 26.5 10V18C26.5 22.4183 22.9183 26 18.5 26H10.5C6.08172 26 2.5 22.4183 2.5 18V10Z" fill="url(#paint0_linear_15424_1651)"/>
<path d="M11.7313 16.8441C11.7313 16.4195 12.0754 16.0754 12.5 16.0754H17.9958V18.9158H12.5C12.0754 18.9158 11.7313 18.5717 11.7313 18.1471V16.8441Z" fill="white"/>
<path d="M22.3218 17.1066C22.5603 17.3111 22.5603 17.68 22.3218 17.8846L18.842 20.8696C18.5096 21.1547 17.9958 20.9186 17.9958 20.4806V16.0754V14.5105C17.9958 14.0726 18.5096 13.8364 18.842 14.1216L22.3218 17.1066Z" fill="white"/>
<path d="M17.2687 8.84703C17.2687 8.42248 16.9246 8.07831 16.5 8.07831H11.0047L11.0047 10.9188H16.5C16.9246 10.9188 17.2687 10.5746 17.2687 10.1501V8.84703Z" fill="white"/>
<path d="M6.67864 9.10955C6.44023 9.31407 6.44023 9.68299 6.67864 9.88751L10.1585 12.8726C10.4909 13.1577 11.0047 12.9215 11.0047 12.4836L11.0047 8.07831V6.51347C11.0047 6.07554 10.4909 5.83936 10.1585 6.1245L6.67864 9.10955Z" fill="white"/>
<defs>
<linearGradient id="paint0_linear_15424_1651" x1="14.5" y1="-2.15385" x2="14.5" y2="33.3846" gradientUnits="userSpaceOnUse">
<stop stop-color="#E51E28"/>
<stop offset="1" stop-color="#FFD6D8"/>
</linearGradient>
</defs>
</svg>
