<svg width="40" height="40" viewBox="0 0 40 40" fill="none" xmlns="http://www.w3.org/2000/svg">
<circle cx="20" cy="20" r="20" fill="#F7F6F9"/>
<path d="M20.4525 23.374C18.7808 23.374 17.4604 22.8214 16.4911 21.716C15.5219 20.6052 15.0373 19.0969 15.0373 17.1911C15.0373 15.2744 15.5192 13.7634 16.483 12.658C17.4522 11.5527 18.7726 11 20.4443 11C21.7838 11 22.9191 11.3948 23.8502 12.1843C24.4689 12.7053 24.9096 13.3248 25.1725 14.0429C25.3925 14.6437 24.8789 15.2064 24.2391 15.2064V15.2064C23.7271 15.2064 23.3079 14.8328 23.0685 14.3803C22.8909 14.0445 22.6506 13.7563 22.3474 13.5156C21.8192 13.0909 21.1848 12.8786 20.4443 12.8786C19.4424 12.8786 18.6501 13.2652 18.0675 14.0384C17.4849 14.8061 17.1936 15.8543 17.1936 17.1829C17.1936 18.5115 17.4849 19.5625 18.0675 20.3357C18.6501 21.1089 19.4451 21.4955 20.4525 21.4955C21.1984 21.4955 21.8355 21.3022 22.3637 20.9156C22.6546 20.6997 22.8868 20.4433 23.0604 20.1465C23.316 19.7096 23.7298 19.3392 24.236 19.3392V19.3392C24.8785 19.3392 25.3913 19.91 25.1576 20.5086C24.8901 21.1937 24.457 21.7786 23.8584 22.2632C22.9436 23.0038 21.8083 23.374 20.4525 23.374Z" fill="url(#paint0_linear_15424_48)"/>
<path d="M14 27.3098C14 26.9287 14.309 26.6197 14.6902 26.6197H25.7165C26.0977 26.6197 26.4067 26.9287 26.4067 27.3098V27.3098C26.4067 27.691 26.0977 28 25.7165 28H14.6902C14.309 28 14 27.691 14 27.3098V27.3098Z" fill="url(#paint1_linear_15424_48)"/>
<defs>
<linearGradient id="paint0_linear_15424_48" x1="20.2034" y1="8.05769" x2="20.2034" y2="33.2308" gradientUnits="userSpaceOnUse">
<stop stop-color="#E51E28"/>
<stop offset="1" stop-color="#FFD6D8"/>
</linearGradient>
<linearGradient id="paint1_linear_15424_48" x1="20.2034" y1="8.05769" x2="20.2034" y2="33.2308" gradientUnits="userSpaceOnUse">
<stop stop-color="#E51E28"/>
<stop offset="1" stop-color="#FFD6D8"/>
</linearGradient>
</defs>
</svg>
