<svg width="359" height="580" viewBox="0 0 359 580" fill="none" xmlns="http://www.w3.org/2000/svg">
<g filter="url(#filter0_d_255_18890)">
<mask id="path-1-inside-1_255_18890" fill="white">
<path fill-rule="evenodd" clip-rule="evenodd" d="M38.3671 15.6718C40.122 15.6718 41.7232 15.0775 42.9374 14.0995C45.0635 12.3871 47.2981 10 50.028 10V10C52.758 10 54.9925 12.3871 57.1186 14.0995C58.3329 15.0775 59.9341 15.6719 61.689 15.6719C63.4438 15.6719 65.045 15.0775 66.2593 14.0995C68.3854 12.3871 70.62 10 73.3499 10V10C76.0799 10 78.3144 12.3871 80.4405 14.0995C81.6548 15.0775 83.256 15.6719 85.0109 15.6719C86.7658 15.6719 88.367 15.0775 89.5812 14.0995C91.7074 12.3871 93.9419 10 96.6718 10V10C99.4018 10 101.636 12.3871 103.762 14.0995C104.977 15.0775 106.578 15.6719 108.333 15.6719C110.088 15.6719 111.689 15.0775 112.903 14.0995C115.029 12.3871 117.264 10 119.994 10V10C122.724 10 124.958 12.3871 127.084 14.0995C128.299 15.0775 129.9 15.6719 131.655 15.6719C133.41 15.6719 135.011 15.0775 136.225 14.0995C138.351 12.3871 140.586 10 143.316 10V10C146.046 10 148.28 12.3871 150.406 14.0995C151.62 15.0775 153.222 15.6719 154.977 15.6719C156.731 15.6719 158.333 15.0775 159.547 14.0996C161.673 12.3871 163.908 10 166.638 10V10C169.367 10 171.602 12.3871 173.728 14.0995C174.942 15.0775 176.544 15.6719 178.298 15.6719C180.053 15.6719 181.655 15.0775 182.869 14.0996C184.995 12.3871 187.229 10 189.959 10V10C192.689 10 194.924 12.3871 197.05 14.0995C198.264 15.0775 199.865 15.6719 201.62 15.6719C203.375 15.6719 204.976 15.0775 206.191 14.0996C208.317 12.3871 210.551 10 213.281 10V10C216.011 10 218.246 12.3871 220.372 14.0995C221.586 15.0775 223.187 15.6719 224.942 15.6719C226.697 15.6719 228.298 15.0775 229.513 14.0996C231.639 12.3871 233.873 10 236.603 10V10C239.333 10 241.568 12.3871 243.694 14.0995C244.908 15.0775 246.509 15.6719 248.264 15.6719C250.019 15.6719 251.62 15.0775 252.835 14.0996C254.961 12.3871 257.195 10 259.925 10V10C262.655 10 264.89 12.3871 267.016 14.0996C268.23 15.0775 269.831 15.6719 271.586 15.6719C273.341 15.6719 274.942 15.0775 276.156 14.0995C278.283 12.3871 280.517 10 283.247 10V10C285.977 10 288.212 12.3871 290.338 14.0995C291.552 15.0775 293.153 15.6719 294.908 15.6719C296.663 15.6719 298.264 15.0775 299.478 14.0995C301.604 12.3871 303.839 10 306.569 10V10C309.299 10 311.533 12.3871 313.66 14.0995C314.874 15.0775 316.475 15.6719 318.23 15.6719V15.6719C323.516 15.6719 329.483 10.552 334.063 13.1915C341.255 17.3365 346.096 25.1029 346.096 34V542C346.096 550.858 341.297 558.596 334.157 562.754C329.566 565.428 323.541 560.23 318.229 560.23V560.23C316.434 560.23 314.799 560.851 313.576 561.87C311.49 563.605 309.281 566 306.568 566V566C303.855 566 301.646 563.605 299.56 561.87C298.336 560.851 296.702 560.23 294.907 560.23C293.112 560.23 291.478 560.851 290.254 561.87C288.168 563.605 285.959 566 283.246 566V566C280.533 566 278.324 563.605 276.238 561.87C275.015 560.851 273.38 560.23 271.585 560.23C269.79 560.23 268.156 560.852 266.932 561.87C264.847 563.605 262.637 566 259.924 566V566C257.212 566 255.002 563.605 252.917 561.87C251.693 560.852 250.058 560.23 248.263 560.23C246.468 560.23 244.834 560.852 243.61 561.87C241.525 563.605 239.315 566 236.602 566V566C233.89 566 231.68 563.605 229.595 561.87C228.371 560.852 226.736 560.23 224.941 560.23C223.146 560.23 221.512 560.852 220.288 561.87C218.203 563.605 215.993 566 213.28 566V566C210.568 566 208.358 563.605 206.273 561.87C205.049 560.852 203.415 560.23 201.619 560.23C199.824 560.23 198.19 560.852 196.966 561.87C194.881 563.605 192.671 566 189.958 566V566C187.246 566 185.036 563.605 182.951 561.87C181.727 560.852 180.093 560.23 178.298 560.23C176.502 560.23 174.868 560.852 173.644 561.87C171.559 563.605 169.349 566 166.637 566V566C163.924 566 161.714 563.605 159.629 561.87C158.405 560.852 156.771 560.23 154.976 560.23C153.18 560.23 151.546 560.852 150.322 561.87C148.237 563.605 146.027 566 143.315 566V566C140.602 566 138.392 563.605 136.307 561.87C135.083 560.852 133.449 560.23 131.654 560.23C129.859 560.23 128.224 560.852 127 561.87C124.915 563.605 122.705 566 119.993 566V566C117.28 566 115.07 563.605 112.985 561.87C111.761 560.852 110.127 560.23 108.332 560.23C106.537 560.23 104.902 560.852 103.678 561.87C101.593 563.605 99.3835 566 96.6709 566V566C93.9583 566 91.7484 563.605 89.6633 561.87C88.4394 560.852 86.8051 560.23 85.0099 560.23C83.2147 560.23 81.5804 560.851 80.3565 561.87C78.2714 563.605 76.0616 566 73.3489 566V566C70.6363 566 68.4265 563.605 66.3413 561.87C65.1175 560.851 63.4831 560.23 61.688 560.23C59.8928 560.23 58.2584 560.852 57.0346 561.87C54.9494 563.605 52.7396 566 50.0271 566V566C47.3145 566 45.1047 563.605 43.0195 561.87C41.7957 560.851 40.1613 560.229 38.3661 560.229V560.229C33.2136 560.229 27.179 564.915 22.8686 562.092C16.3235 557.806 12 550.408 12 542V34C12 25.5515 16.3654 18.1226 22.9635 13.8459C27.266 11.0572 33.2398 15.6718 38.3671 15.6718V15.6718Z"/>
</mask>
<path fill-rule="evenodd" clip-rule="evenodd" d="M38.3671 15.6718C40.122 15.6718 41.7232 15.0775 42.9374 14.0995C45.0635 12.3871 47.2981 10 50.028 10V10C52.758 10 54.9925 12.3871 57.1186 14.0995C58.3329 15.0775 59.9341 15.6719 61.689 15.6719C63.4438 15.6719 65.045 15.0775 66.2593 14.0995C68.3854 12.3871 70.62 10 73.3499 10V10C76.0799 10 78.3144 12.3871 80.4405 14.0995C81.6548 15.0775 83.256 15.6719 85.0109 15.6719C86.7658 15.6719 88.367 15.0775 89.5812 14.0995C91.7074 12.3871 93.9419 10 96.6718 10V10C99.4018 10 101.636 12.3871 103.762 14.0995C104.977 15.0775 106.578 15.6719 108.333 15.6719C110.088 15.6719 111.689 15.0775 112.903 14.0995C115.029 12.3871 117.264 10 119.994 10V10C122.724 10 124.958 12.3871 127.084 14.0995C128.299 15.0775 129.9 15.6719 131.655 15.6719C133.41 15.6719 135.011 15.0775 136.225 14.0995C138.351 12.3871 140.586 10 143.316 10V10C146.046 10 148.28 12.3871 150.406 14.0995C151.62 15.0775 153.222 15.6719 154.977 15.6719C156.731 15.6719 158.333 15.0775 159.547 14.0996C161.673 12.3871 163.908 10 166.638 10V10C169.367 10 171.602 12.3871 173.728 14.0995C174.942 15.0775 176.544 15.6719 178.298 15.6719C180.053 15.6719 181.655 15.0775 182.869 14.0996C184.995 12.3871 187.229 10 189.959 10V10C192.689 10 194.924 12.3871 197.05 14.0995C198.264 15.0775 199.865 15.6719 201.62 15.6719C203.375 15.6719 204.976 15.0775 206.191 14.0996C208.317 12.3871 210.551 10 213.281 10V10C216.011 10 218.246 12.3871 220.372 14.0995C221.586 15.0775 223.187 15.6719 224.942 15.6719C226.697 15.6719 228.298 15.0775 229.513 14.0996C231.639 12.3871 233.873 10 236.603 10V10C239.333 10 241.568 12.3871 243.694 14.0995C244.908 15.0775 246.509 15.6719 248.264 15.6719C250.019 15.6719 251.62 15.0775 252.835 14.0996C254.961 12.3871 257.195 10 259.925 10V10C262.655 10 264.89 12.3871 267.016 14.0996C268.23 15.0775 269.831 15.6719 271.586 15.6719C273.341 15.6719 274.942 15.0775 276.156 14.0995C278.283 12.3871 280.517 10 283.247 10V10C285.977 10 288.212 12.3871 290.338 14.0995C291.552 15.0775 293.153 15.6719 294.908 15.6719C296.663 15.6719 298.264 15.0775 299.478 14.0995C301.604 12.3871 303.839 10 306.569 10V10C309.299 10 311.533 12.3871 313.66 14.0995C314.874 15.0775 316.475 15.6719 318.23 15.6719V15.6719C323.516 15.6719 329.483 10.552 334.063 13.1915C341.255 17.3365 346.096 25.1029 346.096 34V542C346.096 550.858 341.297 558.596 334.157 562.754C329.566 565.428 323.541 560.23 318.229 560.23V560.23C316.434 560.23 314.799 560.851 313.576 561.87C311.49 563.605 309.281 566 306.568 566V566C303.855 566 301.646 563.605 299.56 561.87C298.336 560.851 296.702 560.23 294.907 560.23C293.112 560.23 291.478 560.851 290.254 561.87C288.168 563.605 285.959 566 283.246 566V566C280.533 566 278.324 563.605 276.238 561.87C275.015 560.851 273.38 560.23 271.585 560.23C269.79 560.23 268.156 560.852 266.932 561.87C264.847 563.605 262.637 566 259.924 566V566C257.212 566 255.002 563.605 252.917 561.87C251.693 560.852 250.058 560.23 248.263 560.23C246.468 560.23 244.834 560.852 243.61 561.87C241.525 563.605 239.315 566 236.602 566V566C233.89 566 231.68 563.605 229.595 561.87C228.371 560.852 226.736 560.23 224.941 560.23C223.146 560.23 221.512 560.852 220.288 561.87C218.203 563.605 215.993 566 213.28 566V566C210.568 566 208.358 563.605 206.273 561.87C205.049 560.852 203.415 560.23 201.619 560.23C199.824 560.23 198.19 560.852 196.966 561.87C194.881 563.605 192.671 566 189.958 566V566C187.246 566 185.036 563.605 182.951 561.87C181.727 560.852 180.093 560.23 178.298 560.23C176.502 560.23 174.868 560.852 173.644 561.87C171.559 563.605 169.349 566 166.637 566V566C163.924 566 161.714 563.605 159.629 561.87C158.405 560.852 156.771 560.23 154.976 560.23C153.18 560.23 151.546 560.852 150.322 561.87C148.237 563.605 146.027 566 143.315 566V566C140.602 566 138.392 563.605 136.307 561.87C135.083 560.852 133.449 560.23 131.654 560.23C129.859 560.23 128.224 560.852 127 561.87C124.915 563.605 122.705 566 119.993 566V566C117.28 566 115.07 563.605 112.985 561.87C111.761 560.852 110.127 560.23 108.332 560.23C106.537 560.23 104.902 560.852 103.678 561.87C101.593 563.605 99.3835 566 96.6709 566V566C93.9583 566 91.7484 563.605 89.6633 561.87C88.4394 560.852 86.8051 560.23 85.0099 560.23C83.2147 560.23 81.5804 560.851 80.3565 561.87C78.2714 563.605 76.0616 566 73.3489 566V566C70.6363 566 68.4265 563.605 66.3413 561.87C65.1175 560.851 63.4831 560.23 61.688 560.23C59.8928 560.23 58.2584 560.852 57.0346 561.87C54.9494 563.605 52.7396 566 50.0271 566V566C47.3145 566 45.1047 563.605 43.0195 561.87C41.7957 560.851 40.1613 560.229 38.3661 560.229V560.229C33.2136 560.229 27.179 564.915 22.8686 562.092C16.3235 557.806 12 550.408 12 542V34C12 25.5515 16.3654 18.1226 22.9635 13.8459C27.266 11.0572 33.2398 15.6718 38.3671 15.6718V15.6718Z" fill="white"/>
<path d="M22.8686 562.092L22.3207 562.929L22.8686 562.092ZM43.0195 561.87L43.6592 561.101L43.0195 561.87ZM57.0346 561.87L56.395 561.101L57.0346 561.87ZM66.3413 561.87L66.981 561.101L66.3413 561.87ZM266.932 561.87L266.292 561.101L266.932 561.87ZM276.238 561.87L275.599 562.639L276.238 561.87ZM290.254 561.87L289.614 561.101L290.254 561.87ZM299.56 561.87L300.2 561.101L299.56 561.87ZM313.576 561.87L312.936 561.101L313.576 561.87ZM334.063 13.1915L333.563 14.0579L334.063 13.1915ZM313.66 14.0995L314.287 13.3207L313.66 14.0995ZM290.338 14.0995L290.965 13.3207L290.338 14.0995ZM267.016 14.0996L267.643 13.3207L267.016 14.0996ZM243.694 14.0995L244.321 13.3207L243.694 14.0995ZM103.678 561.87L104.318 562.639L103.678 561.87ZM206.191 14.0996L206.818 14.8784L206.191 14.0996ZM112.985 561.87L112.346 562.639L112.985 561.87ZM197.05 14.0995L197.677 13.3207L197.05 14.0995ZM127 561.87L127.64 562.639L127 561.87ZM182.869 14.0996L183.496 14.8784L182.869 14.0996ZM173.728 14.0995L174.355 13.3207L173.728 14.0995ZM159.629 561.87L158.989 562.639L159.629 561.87ZM150.406 14.0995L151.033 13.3207L150.406 14.0995ZM196.966 561.87L196.326 561.101L196.966 561.87ZM112.903 14.0995L113.53 14.8783L112.903 14.0995ZM206.273 561.87L205.633 562.639L206.273 561.87ZM243.61 561.87L242.97 561.101L243.61 561.87ZM66.2593 14.0995L65.632 13.3207L66.2593 14.0995ZM220.288 561.87L220.928 562.639L220.288 561.87ZM89.5813 14.0995L90.2085 14.8783L89.5813 14.0995ZM173.644 561.87L174.284 562.639L173.644 561.87ZM136.225 14.0995L136.852 14.8783L136.225 14.0995ZM80.3566 561.87L80.9962 562.639L80.3566 561.87ZM229.513 14.0996L230.14 14.8784L229.513 14.0996ZM252.917 561.87L252.277 562.639L252.917 561.87ZM150.322 561.87L149.683 561.101L150.322 561.87ZM159.547 14.0996L160.174 14.8784L159.547 14.0996ZM252.835 14.0996L253.462 14.8784L252.835 14.0996ZM229.595 561.87L230.234 561.101L229.595 561.87ZM80.4405 14.0995L81.0678 13.3207L80.4405 14.0995ZM299.478 14.0995L298.851 13.3207L299.478 14.0995ZM182.951 561.87L183.59 561.101L182.951 561.87ZM89.6633 561.87L90.3029 561.101L89.6633 561.87ZM220.372 14.0995L220.999 13.3207L220.372 14.0995ZM42.3102 13.3207C41.2751 14.1543 39.8957 14.6718 38.3671 14.6718V16.6718C40.3482 16.6718 42.1712 16.0007 43.5647 14.8783L42.3102 13.3207ZM61.689 14.6719C60.1603 14.6719 58.7809 14.1544 57.7459 13.3207L56.4913 14.8784C57.8849 16.0007 59.7078 16.6719 61.689 16.6719V14.6719ZM65.632 13.3207C64.597 14.1544 63.2176 14.6719 61.689 14.6719V16.6719C63.6701 16.6719 65.4931 16.0007 66.8866 14.8784L65.632 13.3207ZM85.0109 14.6719C83.4822 14.6719 82.1028 14.1544 81.0678 13.3207L79.8133 14.8784C81.2068 16.0007 83.0298 16.6719 85.0109 16.6719V14.6719ZM88.954 13.3207C87.919 14.1544 86.5395 14.6719 85.0109 14.6719V16.6719C86.992 16.6719 88.815 16.0007 90.2085 14.8783L88.954 13.3207ZM108.333 14.6719C106.804 14.6719 105.425 14.1544 104.39 13.3207L103.135 14.8783C104.529 16.0007 106.352 16.6719 108.333 16.6719V14.6719ZM112.276 13.3207C111.241 14.1544 109.861 14.6719 108.333 14.6719V16.6719C110.314 16.6719 112.137 16.0007 113.53 14.8783L112.276 13.3207ZM131.655 14.6719C130.126 14.6719 128.747 14.1544 127.712 13.3207L126.457 14.8783C127.851 16.0007 129.674 16.6719 131.655 16.6719V14.6719ZM135.598 13.3207C134.563 14.1544 133.183 14.6719 131.655 14.6719V16.6719C133.636 16.6719 135.459 16.0007 136.852 14.8783L135.598 13.3207ZM154.977 14.6719C153.448 14.6719 152.069 14.1544 151.033 13.3207L149.779 14.8784C151.172 16.0007 152.995 16.6719 154.977 16.6719V14.6719ZM158.92 13.3207C157.885 14.1544 156.505 14.6719 154.977 14.6719V16.6719C156.958 16.6719 158.781 16.0007 160.174 14.8784L158.92 13.3207ZM178.298 14.6719C176.77 14.6719 175.39 14.1544 174.355 13.3207L173.101 14.8784C174.494 16.0007 176.317 16.6719 178.298 16.6719V14.6719ZM182.242 13.3207C181.207 14.1544 179.827 14.6719 178.298 14.6719V16.6719C180.28 16.6719 182.103 16.0007 183.496 14.8784L182.242 13.3207ZM201.62 14.6719C200.092 14.6719 198.712 14.1544 197.677 13.3207L196.423 14.8784C197.816 16.0007 199.639 16.6719 201.62 16.6719V14.6719ZM205.563 13.3207C204.528 14.1544 203.149 14.6719 201.62 14.6719V16.6719C203.602 16.6719 205.424 16.0007 206.818 14.8784L205.563 13.3207ZM224.942 14.6719C223.414 14.6719 222.034 14.1544 220.999 13.3207L219.745 14.8784C221.138 16.0007 222.961 16.6719 224.942 16.6719V14.6719ZM228.885 13.3207C227.85 14.1544 226.471 14.6719 224.942 14.6719V16.6719C226.923 16.6719 228.746 16.0007 230.14 14.8784L228.885 13.3207ZM248.264 14.6719C246.736 14.6719 245.356 14.1544 244.321 13.3207L243.067 14.8784C244.46 16.0007 246.283 16.6719 248.264 16.6719V14.6719ZM252.207 13.3207C251.172 14.1544 249.793 14.6719 248.264 14.6719V16.6719C250.245 16.6719 252.068 16.0007 253.462 14.8784L252.207 13.3207ZM271.586 14.6719C270.057 14.6719 268.678 14.1544 267.643 13.3207L266.388 14.8784C267.782 16.0007 269.605 16.6719 271.586 16.6719V14.6719ZM275.529 13.3207C274.494 14.1544 273.115 14.6719 271.586 14.6719V16.6719C273.567 16.6719 275.39 16.0007 276.784 14.8784L275.529 13.3207ZM294.908 14.6719C293.379 14.6719 292 14.1544 290.965 13.3207L289.71 14.8784C291.104 16.0007 292.927 16.6719 294.908 16.6719V14.6719ZM298.851 13.3207C297.816 14.1544 296.437 14.6719 294.908 14.6719V16.6719C296.889 16.6719 298.712 16.0007 300.106 14.8784L298.851 13.3207ZM318.23 14.6719C316.701 14.6719 315.322 14.1544 314.287 13.3207L313.032 14.8784C314.426 16.0007 316.249 16.6719 318.23 16.6719V14.6719ZM347.096 34C347.096 24.7309 342.051 16.6413 334.562 12.3251L333.563 14.0579C340.458 18.0317 345.096 25.4748 345.096 34H347.096ZM347.096 542V34H345.096V542H347.096ZM334.66 563.618C342.095 559.288 347.096 551.229 347.096 542H345.096C345.096 550.488 340.499 557.903 333.653 561.89L334.66 563.618ZM314.215 562.639C315.258 561.771 316.665 561.23 318.229 561.23V559.23C316.202 559.23 314.341 559.932 312.936 561.101L314.215 562.639ZM300.2 561.101C298.795 559.932 296.934 559.23 294.907 559.23V561.23C296.471 561.23 297.878 561.771 298.921 562.639L300.2 561.101ZM294.907 559.23C292.88 559.23 291.019 559.932 289.614 561.101L290.893 562.639C291.936 561.771 293.343 561.23 294.907 561.23V559.23ZM271.585 561.23C273.149 561.23 274.556 561.771 275.599 562.639L276.878 561.101C275.473 559.932 273.612 559.23 271.585 559.23V561.23ZM267.571 562.639C268.614 561.771 270.021 561.23 271.585 561.23V559.23C269.559 559.23 267.697 559.932 266.292 561.101L267.571 562.639ZM253.556 561.101C252.151 559.932 250.29 559.23 248.263 559.23V561.23C249.827 561.23 251.235 561.771 252.277 562.639L253.556 561.101ZM248.263 559.23C246.237 559.23 244.375 559.932 242.97 561.101L244.249 562.639C245.292 561.771 246.699 561.23 248.263 561.23V559.23ZM224.941 561.23C226.505 561.23 227.913 561.771 228.955 562.639L230.234 561.101C228.829 559.932 226.968 559.23 224.941 559.23V561.23ZM220.928 562.639C221.97 561.771 223.378 561.23 224.941 561.23V559.23C222.915 559.23 221.054 559.932 219.648 561.101L220.928 562.639ZM206.912 561.101C205.507 559.932 203.646 559.23 201.619 559.23V561.23C203.183 561.23 204.591 561.771 205.633 562.639L206.912 561.101ZM201.619 559.23C199.593 559.23 197.732 559.932 196.326 561.101L197.606 562.639C198.648 561.771 200.056 561.23 201.619 561.23V559.23ZM178.298 561.23C179.861 561.23 181.269 561.771 182.311 562.639L183.59 561.101C182.185 559.932 180.324 559.23 178.298 559.23V561.23ZM174.284 562.639C175.326 561.771 176.734 561.23 178.298 561.23V559.23C176.271 559.23 174.41 559.932 173.005 561.101L174.284 562.639ZM160.269 561.101C158.863 559.932 157.002 559.23 154.976 559.23V561.23C156.539 561.23 157.947 561.771 158.989 562.639L160.269 561.101ZM154.976 559.23C152.949 559.23 151.088 559.932 149.683 561.101L150.962 562.639C152.004 561.771 153.412 561.23 154.976 561.23V559.23ZM131.654 561.23C133.218 561.23 134.625 561.771 135.667 562.639L136.947 561.101C135.541 559.932 133.68 559.23 131.654 559.23V561.23ZM127.64 562.639C128.682 561.771 130.09 561.23 131.654 561.23V559.23C129.627 559.23 127.766 559.932 126.361 561.101L127.64 562.639ZM113.625 561.101C112.22 559.932 110.358 559.23 108.332 559.23V561.23C109.896 561.23 111.303 561.771 112.346 562.639L113.625 561.101ZM108.332 559.23C106.305 559.23 104.444 559.932 103.039 561.101L104.318 562.639C105.36 561.771 106.768 561.23 108.332 561.23V559.23ZM85.0099 561.23C86.5737 561.23 87.9812 561.771 89.0237 562.639L90.3029 561.101C88.8976 559.932 87.0364 559.23 85.0099 559.23V561.23ZM80.9962 562.639C82.0386 561.771 83.4461 561.23 85.0099 561.23V559.23C82.9834 559.23 81.1222 559.932 79.7169 561.101L80.9962 562.639ZM66.981 561.101C65.5757 559.932 63.7145 559.23 61.688 559.23V561.23C63.2518 561.23 64.6593 561.771 65.7017 562.639L66.981 561.101ZM61.688 559.23C59.6614 559.23 57.8002 559.932 56.395 561.101L57.6742 562.639C58.7167 561.771 60.1242 561.23 61.688 561.23V559.23ZM43.6592 561.101C42.2539 559.932 40.3927 559.229 38.3661 559.229V561.229C39.9299 561.229 41.3375 561.771 42.3799 562.639L43.6592 561.101ZM11 542C11 550.759 15.5055 558.466 22.3207 562.929L23.4164 561.256C17.1415 557.146 13 550.057 13 542H11ZM11 34V542H13V34H11ZM22.4196 13.0068C15.5491 17.46 11 25.1985 11 34H13C13 25.9046 17.1816 18.7852 23.5074 14.685L22.4196 13.0068ZM23.5074 14.685C25.239 13.5627 27.3879 13.8632 30.0676 14.6706C30.7214 14.8676 31.3824 15.0861 32.0634 15.3091C32.7391 15.5304 33.4319 15.7552 34.125 15.9552C35.5047 16.3533 36.9454 16.6718 38.3671 16.6718V14.6718C37.2251 14.6718 35.9964 14.4136 34.6795 14.0336C34.0243 13.8445 33.3621 13.6299 32.6858 13.4084C32.0147 13.1887 31.3267 12.9611 30.6445 12.7556C27.9799 11.9528 24.9905 11.3404 22.4196 13.0068L23.5074 14.685ZM38.3661 559.229C36.9368 559.229 35.4866 559.553 34.0976 559.957C33.3997 560.16 32.7019 560.389 32.0212 560.614C31.3352 560.84 30.6693 561.062 30.0106 561.263C27.3095 562.084 25.1487 562.39 23.4164 561.256L22.3207 562.929C24.8989 564.617 27.9106 563.992 30.5925 563.176C31.2796 562.967 31.9726 562.736 32.6485 562.513C33.3297 562.288 33.9968 562.07 34.6565 561.878C35.9828 561.492 37.2191 561.229 38.3661 561.229V559.229ZM50.0271 565C48.9722 565 47.9473 564.535 46.8658 563.769C45.7515 562.981 44.7831 562.036 43.6592 561.101L42.3799 562.639C43.3411 563.438 44.5201 564.559 45.7102 565.402C46.933 566.267 48.3693 567 50.0271 567V565ZM56.395 561.101C55.271 562.036 54.3026 562.981 53.1883 563.769C52.1068 564.535 51.0819 565 50.0271 565V567C51.6848 567 53.1211 566.267 54.3439 565.402C55.534 564.559 56.713 563.438 57.6742 562.639L56.395 561.101ZM73.3489 565C72.2941 565 71.2692 564.535 70.1876 563.769C69.0733 562.981 68.1049 562.036 66.981 561.101L65.7017 562.639C66.6629 563.438 67.842 564.559 69.0321 565.402C70.2549 566.267 71.6912 567 73.3489 567V565ZM266.292 561.101C265.168 562.036 264.2 562.981 263.085 563.769C262.004 564.535 260.979 565 259.924 565V567C261.582 567 263.018 566.267 264.241 565.402C265.431 564.559 266.61 563.438 267.571 562.639L266.292 561.101ZM283.246 565C282.191 565 281.166 564.535 280.085 563.769C278.97 562.981 278.002 562.036 276.878 561.101L275.599 562.639C276.56 563.438 277.739 564.559 278.929 565.402C280.152 566.267 281.588 567 283.246 567V565ZM289.614 561.101C288.49 562.036 287.522 562.981 286.407 563.769C285.326 564.535 284.301 565 283.246 565V567C284.904 567 286.34 566.267 287.563 565.402C288.753 564.559 289.932 563.438 290.893 562.639L289.614 561.101ZM306.568 565C305.513 565 304.488 564.535 303.407 563.769C302.292 562.981 301.324 562.036 300.2 561.101L298.921 562.639C299.882 563.438 301.061 564.559 302.251 565.402C303.474 566.267 304.91 567 306.568 567V565ZM312.936 561.101C311.812 562.036 310.844 562.981 309.729 563.769C308.648 564.535 307.623 565 306.568 565V567C308.226 567 309.662 566.267 310.885 565.402C312.075 564.559 313.254 563.438 314.215 562.639L312.936 561.101ZM333.653 561.89C331.794 562.972 329.56 562.524 326.795 561.551C325.499 561.095 324.006 560.494 322.62 560.048C321.199 559.591 319.71 559.23 318.229 559.23V561.23C319.404 561.23 320.66 561.518 322.007 561.952C323.388 562.397 324.684 562.929 326.132 563.438C328.855 564.396 331.928 565.209 334.66 563.618L333.653 561.89ZM318.23 16.6719C319.703 16.6719 321.182 16.3165 322.594 15.8658C323.97 15.4264 325.453 14.8348 326.74 14.3861C329.484 13.4295 331.706 12.9876 333.563 14.0579L334.562 12.3251C331.839 10.7558 328.788 11.5541 326.082 12.4976C324.644 12.999 323.358 13.5224 321.986 13.9605C320.649 14.3873 319.399 14.6719 318.23 14.6719V16.6719ZM306.569 11C307.636 11 308.673 11.4659 309.77 12.2285C310.905 13.0181 311.879 13.9494 313.032 14.8784L314.287 13.3207C313.314 12.5373 312.108 11.4189 310.912 10.5867C309.677 9.72769 308.232 9 306.569 9V11ZM283.247 11C284.314 11 285.351 11.4659 286.448 12.2285C287.583 13.0181 288.557 13.9494 289.71 14.8784L290.965 13.3207C289.992 12.5373 288.786 11.4189 287.59 10.5867C286.355 9.72769 284.91 9 283.247 9V11ZM259.925 11C260.992 11 262.029 11.4659 263.126 12.2285C264.261 13.0181 265.235 13.9494 266.388 14.8784L267.643 13.3207C266.67 12.5373 265.464 11.4189 264.268 10.5867C263.033 9.7277 261.588 9 259.925 9V11ZM236.603 11C237.67 11 238.708 11.4659 239.804 12.2285C240.939 13.0181 241.913 13.9494 243.067 14.8784L244.321 13.3207C243.348 12.5373 242.142 11.4189 240.946 10.5867C239.711 9.7277 238.266 9 236.603 9V11ZM103.039 561.101C101.915 562.036 100.946 562.981 99.8321 563.769C98.7506 564.535 97.7257 565 96.6709 565V567C98.3286 567 99.7649 566.267 100.988 565.402C102.178 564.559 103.357 563.438 104.318 562.639L103.039 561.101ZM206.818 14.8784C207.971 13.9494 208.946 13.0181 210.081 12.2285C211.177 11.4659 212.214 11 213.281 11V9C211.618 9 210.173 9.7277 208.939 10.5867C207.742 11.4189 206.536 12.5373 205.563 13.3207L206.818 14.8784ZM119.993 565C118.938 565 117.913 564.535 116.831 563.769C115.717 562.981 114.749 562.036 113.625 561.101L112.346 562.639C113.307 563.438 114.486 564.559 115.676 565.402C116.899 566.267 118.335 567 119.993 567V565ZM189.959 11C191.026 11 192.064 11.4659 193.16 12.2285C194.295 13.0181 195.269 13.9494 196.423 14.8784L197.677 13.3207C196.705 12.5373 195.499 11.4189 194.302 10.5867C193.067 9.7277 191.622 9 189.959 9V11ZM126.361 561.101C125.237 562.036 124.268 562.981 123.154 563.769C122.072 564.535 121.048 565 119.993 565V567C121.651 567 123.087 566.267 124.31 565.402C125.5 564.559 126.679 563.438 127.64 562.639L126.361 561.101ZM183.496 14.8784C184.65 13.9494 185.624 13.0181 186.759 12.2285C187.855 11.4659 188.892 11 189.959 11V9C188.297 9 186.852 9.7277 185.617 10.5867C184.42 11.4189 183.214 12.5373 182.242 13.3207L183.496 14.8784ZM143.315 565C142.26 565 141.235 564.535 140.153 563.769C139.039 562.981 138.071 562.036 136.947 561.101L135.667 562.639C136.629 563.438 137.808 564.559 138.998 565.402C140.221 566.267 141.657 567 143.315 567V565ZM166.638 11C167.705 11 168.742 11.4659 169.838 12.2285C170.973 13.0181 171.947 13.9494 173.101 14.8784L174.355 13.3207C173.383 12.5373 172.177 11.4189 170.98 10.5867C169.745 9.7277 168.3 9 166.638 9V11ZM166.637 565C165.582 565 164.557 564.535 163.475 563.769C162.361 562.981 161.393 562.036 160.269 561.101L158.989 562.639C159.951 563.438 161.13 564.559 162.32 565.402C163.542 566.267 164.979 567 166.637 567V565ZM143.316 11C144.383 11 145.42 11.4659 146.516 12.2285C147.651 13.0181 148.626 13.9494 149.779 14.8784L151.033 13.3207C150.061 12.5373 148.855 11.4189 147.658 10.5867C146.424 9.7277 144.979 9 143.316 9V11ZM196.326 561.101C195.202 562.036 194.234 562.981 193.12 563.769C192.038 564.535 191.013 565 189.958 565V567C191.616 567 193.053 566.267 194.275 565.402C195.465 564.559 196.644 563.438 197.606 562.639L196.326 561.101ZM113.53 14.8783C114.684 13.9494 115.658 13.018 116.793 12.2285C117.889 11.4659 118.927 11 119.994 11V9C118.331 9 116.886 9.72769 115.651 10.5867C114.455 11.4189 113.249 12.5373 112.276 13.3207L113.53 14.8783ZM276.784 14.8784C277.937 13.9494 278.911 13.0181 280.046 12.2285C281.143 11.4659 282.18 11 283.247 11V9C281.584 9 280.139 9.72769 278.904 10.5867C277.708 11.4189 276.502 12.5373 275.529 13.3207L276.784 14.8784ZM213.28 565C212.225 565 211.201 564.535 210.119 563.769C209.005 562.981 208.036 562.036 206.912 561.101L205.633 562.639C206.594 563.438 207.773 564.559 208.963 565.402C210.186 566.267 211.623 567 213.28 567V565ZM96.6718 11C97.7389 11 98.7761 11.4659 99.8725 12.2285C101.008 13.018 101.982 13.9494 103.135 14.8783L104.39 13.3207C103.417 12.5373 102.211 11.4189 101.015 10.5867C99.7797 9.72769 98.3347 9 96.6718 9V11ZM242.97 561.101C241.846 562.036 240.878 562.981 239.764 563.769C238.682 564.535 237.657 565 236.602 565V567C238.26 567 239.696 566.267 240.919 565.402C242.109 564.559 243.288 563.438 244.249 562.639L242.97 561.101ZM66.8866 14.8784C68.04 13.9494 69.0142 13.0181 70.1492 12.2285C71.2456 11.4659 72.2829 11 73.3499 11V9C71.687 9 70.242 9.7277 69.0071 10.5867C67.8108 11.4189 66.6047 12.5373 65.632 13.3207L66.8866 14.8784ZM219.648 561.101C218.524 562.036 217.556 562.981 216.442 563.769C215.36 564.535 214.335 565 213.28 565V567C214.938 567 216.374 566.267 217.597 565.402C218.787 564.559 219.966 563.438 220.928 562.639L219.648 561.101ZM90.2085 14.8783C91.3619 13.9494 92.3362 13.018 93.4711 12.2285C94.5675 11.4659 95.6048 11 96.6718 11V9C95.0089 9 93.5639 9.72769 92.3291 10.5867C91.1328 11.4189 89.9267 12.5373 88.954 13.3207L90.2085 14.8783ZM173.005 561.101C171.881 562.036 170.912 562.981 169.798 563.769C168.716 564.535 167.691 565 166.637 565V567C168.294 567 169.731 566.267 170.953 565.402C172.143 564.559 173.323 563.438 174.284 562.639L173.005 561.101ZM136.852 14.8783C138.006 13.9494 138.98 13.018 140.115 12.2285C141.211 11.4659 142.249 11 143.316 11V9C141.653 9 140.208 9.72769 138.973 10.5867C137.777 11.4189 136.57 12.5373 135.598 13.3207L136.852 14.8783ZM79.7169 561.101C78.5929 562.036 77.6245 562.981 76.5102 563.769C75.4287 564.535 74.4038 565 73.3489 565V567C75.0067 567 76.443 566.267 77.6658 565.402C78.8559 564.559 80.035 563.438 80.9962 562.639L79.7169 561.101ZM230.14 14.8784C231.293 13.9494 232.268 13.0181 233.403 12.2285C234.499 11.4659 235.536 11 236.603 11V9C234.94 9 233.495 9.7277 232.26 10.5867C231.064 11.4189 229.858 12.5373 228.885 13.3207L230.14 14.8784ZM259.924 565C258.869 565 257.844 564.535 256.763 563.769C255.649 562.981 254.68 562.036 253.556 561.101L252.277 562.639C253.238 563.438 254.417 564.559 255.607 565.402C256.83 566.267 258.266 567 259.924 567V565ZM50.028 11C51.0951 11 52.1323 11.4659 53.2287 12.2285C54.3637 13.0181 55.3379 13.9494 56.4913 14.8784L57.7459 13.3207C56.7732 12.5373 55.5671 11.4189 54.3708 10.5867C53.1359 9.7277 51.6909 9 50.028 9V11ZM149.683 561.101C148.559 562.036 147.59 562.981 146.476 563.769C145.394 564.535 144.369 565 143.315 565V567C144.972 567 146.409 566.267 147.632 565.402C148.822 564.559 150.001 563.438 150.962 562.639L149.683 561.101ZM160.174 14.8784C161.328 13.9494 162.302 13.0181 163.437 12.2285C164.533 11.4659 165.57 11 166.638 11V9C164.975 9 163.53 9.7277 162.295 10.5867C161.098 11.4189 159.892 12.5373 158.92 13.3207L160.174 14.8784ZM253.462 14.8784C254.615 13.9494 255.589 13.0181 256.724 12.2285C257.821 11.4659 258.858 11 259.925 11V9C258.262 9 256.817 9.7277 255.582 10.5867C254.386 11.4189 253.18 12.5373 252.207 13.3207L253.462 14.8784ZM236.602 565C235.547 565 234.523 564.535 233.441 563.769C232.327 562.981 231.358 562.036 230.234 561.101L228.955 562.639C229.916 563.438 231.095 564.559 232.285 565.402C233.508 566.267 234.944 567 236.602 567V565ZM73.3499 11C74.417 11 75.4542 11.4659 76.5506 12.2285C77.6856 13.0181 78.6598 13.9494 79.8133 14.8784L81.0678 13.3207C80.0951 12.5373 78.889 11.4189 77.6927 10.5867C76.4578 9.7277 75.0128 9 73.3499 9V11ZM300.106 14.8784C301.259 13.9494 302.233 13.0181 303.368 12.2285C304.465 11.4659 305.502 11 306.569 11V9C304.906 9 303.461 9.72769 302.226 10.5867C301.03 11.4189 299.824 12.5373 298.851 13.3207L300.106 14.8784ZM189.958 565C188.904 565 187.879 564.535 186.797 563.769C185.683 562.981 184.714 562.036 183.59 561.101L182.311 562.639C183.272 563.438 184.452 564.559 185.642 565.402C186.864 566.267 188.301 567 189.958 567V565ZM119.994 11C121.061 11 122.098 11.4659 123.194 12.2285C124.329 13.018 125.304 13.9494 126.457 14.8783L127.712 13.3207C126.739 12.5373 125.533 11.4189 124.337 10.5867C123.102 9.72769 121.657 9 119.994 9V11ZM96.6709 565C95.616 565 94.5911 564.535 93.5096 563.769C92.3953 562.981 91.4269 562.036 90.3029 561.101L89.0237 562.639C89.9848 563.438 91.1639 564.559 92.354 565.402C93.5768 566.267 95.0131 567 96.6709 567V565ZM213.281 11C214.348 11 215.386 11.4659 216.482 12.2285C217.617 13.0181 218.591 13.9494 219.745 14.8784L220.999 13.3207C220.027 12.5373 218.82 11.4189 217.624 10.5867C216.389 9.7277 214.944 9 213.281 9V11ZM43.5647 14.8783C44.7181 13.9493 45.6923 13.018 46.8273 12.2285C47.9237 11.4659 48.9609 11 50.028 11V9C48.3651 9 46.9201 9.72769 45.6852 10.5867C44.4889 11.4188 43.2829 12.5373 42.3102 13.3207L43.5647 14.8783Z" fill="#EFEEF3" mask="url(#path-1-inside-1_255_18890)"/>
</g>
<defs>
<filter id="filter0_d_255_18890" x="0" y="0" width="358.096" height="580" filterUnits="userSpaceOnUse" color-interpolation-filters="sRGB">
<feFlood flood-opacity="0" result="BackgroundImageFix"/>
<feColorMatrix in="SourceAlpha" type="matrix" values="0 0 0 0 0 0 0 0 0 0 0 0 0 0 0 0 0 0 127 0" result="hardAlpha"/>
<feOffset dy="2"/>
<feGaussianBlur stdDeviation="6"/>
<feComposite in2="hardAlpha" operator="out"/>
<feColorMatrix type="matrix" values="0 0 0 0 0.25098 0 0 0 0 0.25098 0 0 0 0 0.25098 0 0 0 0.12 0"/>
<feBlend mode="normal" in2="BackgroundImageFix" result="effect1_dropShadow_255_18890"/>
<feBlend mode="normal" in="SourceGraphic" in2="effect1_dropShadow_255_18890" result="shape"/>
</filter>
</defs>
</svg>
