<svg width="117" height="65" viewBox="0 0 117 65" fill="none" xmlns="http://www.w3.org/2000/svg">
<g clip-path="url(#clip0_255_18937)">
<path fill-rule="evenodd" clip-rule="evenodd" d="M47.7965 23.5797C47.483 23.8842 47.4538 24.0965 47.6359 24.7589L47.8036 25.3696L48.8871 25.0679L49.9703 24.7663L49.6811 23.8926L49.3919 23.019L48.6962 23.2002C48.3139 23.2997 47.909 23.4706 47.7965 23.5797ZM28.7642 29.2405C27.4355 30.456 27.1717 32.1073 27.9333 34.4425C28.425 35.9507 28.9096 36.6186 29.9819 37.2673C30.9933 37.879 31.7342 37.959 33.0344 37.597C34.4151 37.2125 34.9886 36.7407 35.5919 35.4923C36.1271 34.3852 36.1706 33.3456 35.7459 31.8205C35.3194 30.2888 34.7463 29.4277 33.6995 28.7457C32.6391 28.0549 31.879 27.9554 30.5202 28.3296C29.6146 28.5789 29.3209 28.7313 28.7642 29.2405ZM43.3416 25.2841L43.0353 25.7427L44.055 29.405C45.028 32.8993 45.0937 33.0819 45.4886 33.3885C46.0034 33.7882 47.1348 33.7913 48.0663 33.3956L48.7232 33.1165L48.5086 32.3456L48.2939 31.5746L47.8203 31.7065C47.0687 31.9158 46.9559 31.7684 46.4345 29.896L45.9629 28.2022L46.6088 28.0224L47.2547 27.8425L47.0548 27.1248L46.855 26.4071L46.2091 26.587L45.5632 26.7668L45.2434 25.6185L44.9237 24.4701L44.2858 24.6478C43.8182 24.778 43.566 24.948 43.3416 25.2841ZM72.7417 21.6105L74.0044 26.1453L76.7537 25.3268C79.1879 24.6022 79.548 24.4607 79.8938 24.0936C80.6464 23.2943 80.6031 21.4789 79.8114 20.6269C79.4822 20.2726 78.3993 19.9436 77.9631 20.065C77.5789 20.172 77.6515 19.8714 78.0621 19.6534C78.9798 19.1666 79.2656 17.8502 78.6695 16.8575C77.8379 15.4732 77.4048 15.4257 74.0769 16.3524L71.4789 17.0758L72.7417 21.6105ZM94.471 11.0174C94.3565 11.3413 94.5118 12.03 95.5062 15.6013L96.6764 19.8037L97.3838 19.6067C97.9772 19.4415 98.122 19.3355 98.2834 18.9487C98.4677 18.5065 98.4284 18.3187 97.3217 14.3443L96.168 10.201L95.3866 10.4186C94.7418 10.5981 94.5817 10.7029 94.471 11.0174ZM32.0409 30.2235C32.6324 30.628 32.9886 31.3916 33.3725 33.0781C33.7324 34.6589 33.6032 35.3637 32.8782 35.7758C32.4993 35.9912 32.2985 36.0214 31.9608 35.9138C31.142 35.6529 30.806 35.1382 30.3246 33.4074C29.9484 32.0546 29.9071 31.7301 30.0364 31.1432C30.2063 30.3729 30.2969 30.2739 31.0354 30.051C31.4485 29.9263 31.6588 29.9624 32.0409 30.2235ZM76.474 17.8049C76.9581 18.1598 77.0424 18.7052 76.6925 19.2201C76.5278 19.4621 76.2129 19.6244 75.5485 19.8094L74.6311 20.0648L74.3513 19.06L74.0715 18.0552L75.0658 17.7784C75.9759 17.525 76.0955 17.5272 76.474 17.8049ZM39.4209 28.5935C39.1739 28.8166 38.9295 29.2492 38.8511 29.602C38.7756 29.9418 38.6816 30.2292 38.6422 30.2405C38.6028 30.2518 38.4851 29.9542 38.3807 29.5791L38.1908 28.897L37.186 29.1768L36.1812 29.4566L37.4202 33.9064L38.6593 38.3562L39.3563 38.2094C39.9656 38.081 40.0924 37.9936 40.362 37.5159C40.6572 36.9928 40.6555 36.9153 40.321 35.7142L39.9715 34.4591L40.5978 34.8753C41.1596 35.2483 41.3114 35.2747 42.0684 35.13C42.9533 34.7494 42.9141 34.966 43.3501 34.1533C43.8573 33.2081 43.8892 32.4184 43.4795 30.9519C42.9987 29.2304 42.1427 28.2236 41.043 28.0864C40.3363 27.9981 39.9437 28.1209 39.4209 28.5935ZM54.3868 24.3794C54.1681 24.5571 53.8924 24.9887 53.7746 25.3386L53.5598 25.9747L53.3396 25.3575L53.119 24.7402L52.1385 24.9675L51.1575 25.195L52.0986 28.5747L53.0397 31.9545L54.1164 31.6547L55.193 31.3549L54.5335 28.9865C53.9273 26.8094 53.8909 26.5883 54.0813 26.251C54.1951 26.0491 54.3851 25.857 54.5036 25.824C54.622 25.7911 54.884 25.8573 55.0858 25.9713C55.4175 26.1585 55.5062 26.3697 56.0071 28.1686C56.5072 29.9647 56.6007 30.1876 56.9644 30.4541C57.3109 30.7084 57.4753 30.7194 58.1459 30.5326L58.9252 30.3157L58.3178 28.1261C57.6289 25.6435 57.625 25.2107 58.2885 24.9618C59.0801 24.6649 59.1498 24.7603 59.9101 27.1873C60.7175 29.7653 60.7559 29.8059 62.0534 29.4446L62.8308 29.2281L61.9886 26.4009C61.046 23.236 60.9379 23.0564 59.863 22.8703C58.9437 22.7111 58.0874 23.1505 57.6254 24.0189L57.2633 24.7L56.9093 24.3513C56.5381 23.9855 55.6643 23.7953 55.1108 23.9596C54.9316 24.0129 54.6056 24.2019 54.3868 24.3794ZM63.765 21.7541C62.8395 22.3173 62.05 23.7442 62.5757 23.903C63.0401 24.0434 64.1658 23.6124 64.5198 23.1587C64.9103 22.6585 65.7339 22.3696 66.1256 22.5956C66.2697 22.6788 66.4618 22.9344 66.552 23.1639C66.7168 23.5808 66.7165 23.5809 65.8098 23.9342C64.523 24.4354 63.8376 24.8736 63.4478 25.444C62.7842 26.4147 62.8166 27.3351 63.5425 28.1044C64.615 29.2411 66.8895 28.6156 67.4068 27.0417C67.5852 26.4977 67.6025 26.4839 67.6938 26.8115C67.7471 27.0029 67.9313 27.2751 68.1029 27.4163C68.3633 27.6305 68.5504 27.6355 69.2324 27.4457L70.0495 27.2182L69.2527 24.54C68.3592 21.5358 68.1917 21.2557 67.1606 21.0392C66.3776 20.8747 64.5921 21.2507 63.765 21.7541ZM82.1575 16.6271C81.8191 16.8334 81.4063 17.1576 81.2401 17.3475C80.9001 17.7358 80.6648 18.6241 80.8555 18.8001C80.9243 18.8636 81.3437 18.8143 81.788 18.6906C82.4142 18.5163 82.6495 18.3768 82.8354 18.07C83.1164 17.6066 84.042 17.2637 84.4812 17.4602C84.6432 17.5328 84.8278 17.801 84.9038 18.0739C85.0344 18.5429 85.0202 18.564 84.4717 18.7167C82.9949 19.1279 81.6328 20.1415 81.3861 21.0128C80.9359 22.6021 82.3489 23.946 83.9912 23.49C84.9007 23.2375 85.4885 22.7111 85.7081 21.9526L85.8856 21.3403L86.1295 21.8679C86.4343 22.5279 86.6456 22.5914 87.6327 22.3198L88.4231 22.1023L87.6486 19.497C86.7449 16.4563 86.5621 16.1592 85.4735 15.9619C84.5818 15.8004 82.9902 16.1196 82.1575 16.6271ZM91.1954 14.0066C90.6323 14.3835 90.4044 14.723 90.2614 15.3982L90.1035 16.1432L89.8672 15.3196L89.6304 14.4962L88.6256 14.776L87.6207 15.0558L88.56 18.429L89.4993 21.8022L90.5635 21.5059L91.6278 21.2095L91.0209 18.8424C90.4861 16.7583 90.4363 16.43 90.6029 16.0973C90.8494 15.6059 91.3679 15.4697 91.7616 15.7933C92.0071 15.9951 92.1903 16.4682 92.6192 18.0084C93.1103 19.7721 93.2044 19.9959 93.5671 20.262C93.914 20.5162 94.0785 20.5271 94.7491 20.3404L95.5283 20.1234L94.7469 17.3172C93.8504 14.0976 93.7118 13.8594 92.6724 13.7456C92.0288 13.6752 91.5694 13.7563 91.1954 14.0066ZM48.9426 29.4601L49.882 32.8338L50.6062 32.6321C51.1839 32.4712 51.382 32.3392 51.5847 31.9799C51.8382 31.5306 51.8371 31.5237 51.0019 28.5245L50.1651 25.5193L49.0843 25.8028L48.0032 26.0863L48.9426 29.4601ZM98.5633 13.4904C98.1766 14.413 97.8815 15.2433 97.9076 15.3357C97.9547 15.5049 100.68 18.3505 100.944 18.5066C101.022 18.5526 101.542 18.4426 102.099 18.2623L103.113 17.9342L101.449 16.3476L99.785 14.7608L100.396 13.1147C100.732 12.2093 100.998 11.4394 100.988 11.4036C100.978 11.3679 100.587 11.4454 100.118 11.5758L99.2666 11.813L98.5633 13.4904ZM40.3508 29.9358C40.6567 30.1292 40.7717 30.3895 41.1473 31.7384C41.5605 33.2222 41.5709 33.3367 41.3239 33.6837C40.9772 34.1709 40.7413 34.219 40.1992 33.9129C39.7779 33.6752 39.7214 33.5609 39.3271 32.145C38.959 30.8227 38.9319 30.5849 39.1128 30.2643C39.3812 29.7888 39.9002 29.6511 40.3508 29.9358ZM77.0758 21.1846C77.4353 21.181 78.0221 21.689 78.1376 22.1039C78.1727 22.2297 78.087 22.5354 77.947 22.7832C77.7254 23.1762 77.5641 23.2696 76.6817 23.5153L75.6703 23.7969L75.3705 22.7203L75.0708 21.6438L75.8968 21.4159C76.3512 21.2905 76.8819 21.1863 77.0758 21.1846ZM67.166 25.2756C67.3182 26.1806 67.0173 26.825 66.3566 27.009C65.9225 27.1299 65.3747 26.8156 65.252 26.3749C65.0826 25.7665 65.8022 24.8983 66.7228 24.6009C67.0165 24.506 67.0433 24.5472 67.166 25.2756ZM85.4803 20.1442C85.6411 20.7218 85.6304 20.9597 85.4276 21.3189C84.9556 22.1555 83.8693 22.1356 83.6328 21.2863C83.4609 20.6691 84.132 19.7744 84.9583 19.519C85.2494 19.4291 85.2971 19.4862 85.4803 20.1442Z" fill="#006EDC" fill-opacity="0.5"/>
<path d="M25.6688 34.5591C26.8184 38.6874 24.4036 42.9659 20.2754 44.1154C16.1471 45.2649 11.8686 42.8502 10.7191 38.7219C9.56957 34.5937 11.9843 30.3152 16.1126 29.1657C20.2408 28.0161 24.5193 30.4309 25.6688 34.5591Z" fill="#006EDC" fill-opacity="0.5"/>
<path d="M22.9157 35.3691L12.9434 30.915L16.2717 37.2191L16.662 44.255L22.9157 35.3691Z" fill="white"/>
</g>
<path d="M21.7905 55.9444L22.4727 55.7544L21.4213 51.9786L23.5924 51.3741L24.6438 55.1499L25.326 54.9599L24.1235 50.6413L20.588 51.6258L21.7905 55.9444ZM26.3797 51.7198L27.581 51.3853L28.3425 54.12L29.0039 53.9358L28.1004 50.6909L25.6771 51.3657L26.0841 53.1029C26.1731 53.4914 26.2092 53.7626 26.1924 53.9165C26.1776 54.0697 26.098 54.1665 25.9536 54.2067C25.9101 54.2188 25.8688 54.2271 25.8295 54.2316C25.7903 54.2362 25.752 54.2362 25.7145 54.2317L25.8764 54.813C25.9209 54.8198 25.9699 54.82 26.0235 54.8136C26.0777 54.8092 26.1404 54.7971 26.2116 54.7772C26.524 54.6902 26.7103 54.5063 26.7706 54.2253C26.8328 53.9437 26.8032 53.5429 26.6818 53.0227L26.3797 51.7198ZM29.4447 52.7871C29.5356 53.1134 29.7189 53.3319 29.9948 53.4426C30.2726 53.5527 30.5726 53.5629 30.895 53.4731C31.1757 53.395 31.3921 53.2804 31.5439 53.1294C31.6978 52.9779 31.7958 52.8249 31.838 52.6704C31.8665 52.7498 31.9029 52.8271 31.9472 52.9021C31.9935 52.9765 32.0387 53.0353 32.0827 53.0785L32.7233 52.9001L32.7101 52.8526C32.6503 52.7756 32.5938 52.6837 32.5407 52.577C32.489 52.4678 32.4452 52.349 32.4094 52.2205L31.9783 50.6722C31.8792 50.3163 31.6879 50.0808 31.4045 49.9658C31.1211 49.8509 30.7688 49.852 30.3476 49.9693C29.9244 50.0871 29.6155 50.2786 29.4209 50.5438C29.2282 50.8083 29.1685 51.0721 29.2417 51.3351L29.2459 51.3499L29.9073 51.1658L29.9032 51.1509C29.8679 51.0244 29.8902 50.8978 29.97 50.7712C30.0518 50.644 30.2182 50.5455 30.4694 50.4755C30.7205 50.4056 30.9123 50.4097 31.0449 50.4879C31.1789 50.5635 31.2695 50.6863 31.3169 50.8564L31.3879 51.1114L30.6405 51.3196C30.2094 51.4396 29.8793 51.6316 29.6503 51.8957C29.4207 52.1578 29.3522 52.4549 29.4447 52.7871ZM30.0949 52.5741C30.0459 52.3981 30.0822 52.2378 30.2039 52.0931C30.3269 51.9459 30.5338 51.8319 30.8245 51.7509L31.5126 51.5593L31.6332 51.9924C31.6789 52.1565 31.6272 52.3381 31.4781 52.5373C31.331 52.7359 31.1418 52.8675 30.9104 52.9319C30.683 52.9952 30.5018 52.9946 30.3666 52.9299C30.2328 52.8628 30.1423 52.7442 30.0949 52.5741ZM32.4127 50.0399L33.4508 49.7508L34.2123 52.4855L34.8737 52.3013L34.1122 49.5666L35.1474 49.2784L35.0053 48.7682L32.2706 49.5297L32.4127 50.0399ZM35.8411 50.3349C35.9776 50.8253 36.2315 51.186 36.6027 51.4172C36.9733 51.6464 37.4265 51.6864 37.9624 51.5371C38.2887 51.4463 38.5489 51.3057 38.743 51.1152C38.9391 50.9243 39.0684 50.7381 39.1308 50.5566L38.6033 50.3264C38.5459 50.4723 38.4532 50.61 38.3251 50.7394C38.1971 50.8688 38.0283 50.9627 37.8187 51.0211C37.4806 51.1152 37.1996 51.0741 36.9758 50.8978C36.752 50.7215 36.5952 50.4722 36.5055 50.1499L36.479 50.055C36.3893 49.7326 36.3907 49.4393 36.4833 49.1749C36.5758 48.9105 36.7664 48.7381 37.0551 48.6577C37.3517 48.5751 37.585 48.6017 37.755 48.7377C37.9244 48.8716 38.0418 49.0562 38.1074 49.2915L38.1111 49.2937L36.1654 49.8355L36.3042 50.3338L38.9173 49.6061L38.8429 49.3392C38.7058 48.8468 38.4683 48.4911 38.1303 48.272C37.7943 48.0524 37.389 48.0086 36.9144 48.1408C36.4458 48.2712 36.1113 48.5316 35.911 48.9219C35.7108 49.3122 35.6786 49.7516 35.8146 50.24L35.8411 50.3349ZM42.2621 50.244L41.3586 46.9991L40.7001 47.1825L41.6037 50.4273L42.2621 50.244ZM43.6443 49.8591L44.4422 49.637L42.3122 48.1398L41.9914 48.6862L43.6443 49.8591ZM41.406 48.4433L41.5472 48.9505L42.4133 48.7094L43.42 46.4251L42.7022 46.625L41.9903 48.2806L41.406 48.4433ZM40.2156 50.8139L41.0183 48.9795L40.4782 48.6697L39.4414 51.0294L40.2156 50.8139ZM41.406 48.4433L40.8217 48.606L39.3713 47.5525L38.6298 47.759L40.6722 49.1942L41.5472 48.9505L41.406 48.4433ZM46.3167 49.115L47.8917 48.6764C48.2575 48.5746 48.5241 48.4109 48.6914 48.1853C48.8587 47.9597 48.9024 47.7036 48.8226 47.4169C48.7659 47.2132 48.6556 47.066 48.4918 46.9752C48.3295 46.8819 48.1339 46.849 47.9051 46.8765L47.9026 46.8676C48.0763 46.7724 48.1995 46.6486 48.2722 46.4963C48.3443 46.342 48.3542 46.1709 48.3019 45.983C48.2242 45.7042 48.0625 45.5213 47.8166 45.4342C47.5728 45.3466 47.264 45.3548 46.8903 45.4588L45.4132 45.8701L46.3167 49.115ZM46.4453 47.0401L46.2099 46.1948L46.9811 45.9801C47.1805 45.9309 47.3325 45.9259 47.4371 45.9649C47.5412 46.002 47.6125 46.0898 47.651 46.2282C47.6901 46.3686 47.6769 46.4894 47.6114 46.5908C47.5458 46.6921 47.4142 46.7703 47.2165 46.8254L46.4453 47.0401ZM46.8318 48.4282L46.5824 47.5325L47.4485 47.2913C47.6502 47.2352 47.8075 47.234 47.9205 47.2877C48.0354 47.3409 48.1127 47.4387 48.1524 47.5811C48.192 47.7235 48.1761 47.8462 48.1047 47.9492C48.0332 48.0522 47.8976 48.1315 47.6979 48.1871L46.8318 48.4282ZM50.606 46.2235C50.7426 46.7139 51.0024 47.073 51.3854 47.3009C51.7679 47.5268 52.2073 47.5706 52.7037 47.4324C53.198 47.2948 53.5505 47.0304 53.7612 46.6393C53.9734 46.2458 54.0112 45.8038 53.8746 45.3134L53.8482 45.2185C53.7122 44.7301 53.4517 44.3722 53.0667 44.1449C52.6836 43.917 52.2439 43.8722 51.7476 44.0104C51.2533 44.1481 50.901 44.4134 50.6909 44.8064C50.4807 45.1995 50.4436 45.6402 50.5796 46.1286L50.606 46.2235ZM51.2559 45.9403C51.1672 45.6219 51.1724 45.3307 51.2715 45.0666C51.3725 44.802 51.5812 44.6256 51.8976 44.5375C52.212 44.45 52.4798 44.4937 52.7011 44.6686C52.9244 44.8429 53.0803 45.0892 53.169 45.4076L53.1954 45.5025C53.284 45.8209 53.2779 46.1124 53.1768 46.377C53.0778 46.6411 52.8711 46.8169 52.5567 46.9044C52.2403 46.9925 51.9705 46.9494 51.7472 46.7751C51.5259 46.6002 51.3709 46.3536 51.2823 46.0352L51.2559 45.9403ZM55.0581 44.9838C54.9771 44.6932 54.989 44.4257 55.0935 44.1814C55.1981 43.9371 55.4085 43.7708 55.7249 43.6828C56.0433 43.5941 56.3103 43.6273 56.5261 43.7825C56.7419 43.9376 56.8902 44.1605 56.9712 44.4511L56.9976 44.546C57.0791 44.8387 57.0678 45.1082 56.9638 45.3545C56.8593 45.5988 56.6478 45.7653 56.3295 45.8539C56.0131 45.942 55.747 45.9085 55.5312 45.7534C55.3149 45.5963 55.166 45.3714 55.0845 45.0788L55.0581 44.9838ZM55.6936 43.1226C55.4088 43.2019 55.1821 43.3289 55.0135 43.5037C54.8443 43.6765 54.7404 43.8887 54.7017 44.1402L54.6721 44.1485C54.6023 43.7908 54.6251 43.4787 54.7405 43.2122C54.8554 42.9437 55.1598 42.7055 55.6538 42.4977C56.1073 42.3053 56.3932 42.1266 56.5113 41.9617C56.6289 41.7947 56.6647 41.5866 56.6187 41.3373L56.0314 41.5008C56.0373 41.5525 56.0145 41.6046 55.9631 41.6573C55.9112 41.7079 55.7093 41.8132 55.3575 41.9729C54.7409 42.2533 54.36 42.6299 54.2147 43.1029C54.0709 43.5734 54.0967 44.1596 54.2921 44.8615L54.3409 45.0365C54.5071 45.6337 54.7787 46.0428 55.1556 46.2639C55.5339 46.4824 55.9742 46.5217 56.4765 46.3819C56.9748 46.2431 57.3312 45.9851 57.5458 45.6079C57.7603 45.2307 57.804 44.8137 57.6768 44.3569L57.6504 44.262C57.5216 43.7993 57.2726 43.4638 56.9035 43.2555C56.5359 43.0447 56.1325 43.0004 55.6936 43.1226ZM59.1058 46.8834L59.7673 46.6992L59.3196 45.0916C59.4554 45.1965 59.6183 45.2652 59.8084 45.2975C59.998 45.3278 60.2114 45.3099 60.4487 45.2438C60.8797 45.1238 61.1818 44.8735 61.355 44.4929C61.5301 44.1117 61.5518 43.6849 61.4203 43.2123L61.3938 43.1174C61.2622 42.6448 61.023 42.2906 60.6761 42.0548C60.3311 41.8185 59.9422 41.7606 59.5091 41.8812C59.2718 41.9472 59.0771 42.0515 58.9251 42.194C58.7724 42.3345 58.6718 42.4819 58.6231 42.636L58.6082 42.6402L58.4697 42.2345L57.8587 42.4046L59.1058 46.8834ZM59.1437 44.4598L58.8001 43.226C58.8268 43.0694 58.8982 42.9163 59.0143 42.7668C59.1317 42.6148 59.2943 42.5099 59.5019 42.4521C59.8143 42.3651 60.0734 42.408 60.2792 42.5808C60.4845 42.7516 60.6306 42.9932 60.7176 43.3057L60.744 43.4006C60.831 43.713 60.8311 43.9964 60.7442 44.2507C60.6568 44.503 60.4569 44.6727 60.1444 44.7596C59.9368 44.8175 59.7437 44.8126 59.5651 44.7452C59.3885 44.6772 59.248 44.5821 59.1437 44.4598ZM62.1127 43.6906C62.2036 44.0169 62.3869 44.2354 62.6628 44.346C62.9406 44.4562 63.2407 44.4664 63.563 44.3766C63.8438 44.2984 64.0601 44.1839 64.212 44.0329C64.3658 43.8814 64.4638 43.7284 64.506 43.5739C64.5345 43.6533 64.571 43.7306 64.6153 43.8056C64.6616 43.88 64.7067 43.9388 64.7507 43.982L65.3914 43.8036L65.3782 43.7561C65.3183 43.6791 65.2619 43.5872 65.2087 43.4805C65.157 43.3713 65.1133 43.2525 65.0775 43.124L64.6464 41.5757C64.5472 41.2198 64.356 40.9843 64.0725 40.8693C63.7891 40.7544 63.4368 40.7555 63.0156 40.8728C62.5925 40.9906 62.2836 41.1821 62.0889 41.4472C61.8963 41.7118 61.8366 41.9756 61.9098 42.2386L61.9139 42.2534L62.5753 42.0693L62.5712 42.0544C62.536 41.9279 62.5583 41.8013 62.6381 41.6747C62.7198 41.5475 62.8863 41.4489 63.1374 41.379C63.3885 41.3091 63.5804 41.3132 63.7129 41.3914C63.8469 41.467 63.9376 41.5898 63.9849 41.7599L64.056 42.0149L63.3085 42.2231C62.8774 42.3431 62.5474 42.5351 62.3184 42.7992C62.0888 43.0613 62.0202 43.3584 62.1127 43.6906ZM62.763 43.4776C62.7139 43.3016 62.7503 43.1413 62.8719 42.9966C62.995 42.8494 63.2019 42.7354 63.4925 42.6544L64.1807 42.4628L64.3012 42.8959C64.3469 43.06 64.2953 43.2416 64.1462 43.4408C63.9991 43.6394 63.8098 43.771 63.5785 43.8354C63.3511 43.8987 63.1698 43.8981 63.0346 43.8334C62.9009 43.7663 62.8103 43.6477 62.763 43.4776ZM66.2164 41.8768C66.1354 41.5861 66.1472 41.3186 66.2518 41.0743C66.3563 40.83 66.5668 40.6638 66.8832 40.5757C67.2015 40.4871 67.4686 40.5203 67.6844 40.6754C67.9002 40.8305 68.0485 41.0534 68.1295 41.3441L68.1559 41.439C68.2374 41.7316 68.2261 42.0011 68.1221 42.2474C68.0176 42.4917 67.8061 42.6582 67.4877 42.7468C67.1714 42.8349 66.9053 42.8014 66.6895 42.6463C66.4732 42.4892 66.3243 42.2644 66.2428 41.9717L66.2164 41.8768ZM66.8518 40.0155C66.5671 40.0948 66.3404 40.2219 66.1717 40.3967C66.0025 40.5695 65.8986 40.7817 65.86 41.0332L65.8303 41.0415C65.7606 40.6838 65.7834 40.3716 65.8988 40.1051C66.0137 39.8366 66.3181 39.5985 66.8121 39.3906C67.2656 39.1983 67.5514 39.0196 67.6696 38.8546C67.7871 38.6876 67.8229 38.4795 67.777 38.2302L67.1897 38.3938C67.1955 38.4454 67.1728 38.4976 67.1214 38.5502C67.0694 38.6009 66.8676 38.7061 66.5157 38.8659C65.8992 39.1462 65.5183 39.5229 65.373 39.9959C65.2291 40.4663 65.2549 41.0525 65.4504 41.7545L65.4991 41.9295C65.6654 42.5267 65.937 42.9358 66.3139 43.1568C66.6922 43.3753 67.1325 43.4147 67.6348 43.2748C68.133 43.1361 68.4895 42.8781 68.704 42.5009C68.9186 42.1236 68.9623 41.7066 68.8351 41.2499L68.8087 41.155C68.6798 40.6923 68.4309 40.3567 68.0618 40.1484C67.6941 39.9376 67.2908 39.8933 66.8518 40.0155ZM69.2981 41.0187C69.4346 41.5091 69.6944 41.8682 70.0775 42.096C70.46 42.3219 70.8994 42.3658 71.3957 42.2276C71.89 42.0899 72.2426 41.8256 72.4533 41.4345C72.6654 41.0409 72.7032 40.5989 72.5667 40.1085L72.5402 40.0136C72.4042 39.5252 72.1437 39.1674 71.7587 38.94C71.3756 38.7122 70.936 38.6674 70.4396 38.8056C69.9453 38.9432 69.593 39.2086 69.3829 39.6016C69.1727 39.9946 69.1356 40.4354 69.2716 40.9238L69.2981 41.0187ZM69.9479 40.7355C69.8593 40.4171 69.8645 40.1259 69.9635 39.8618C70.0645 39.5972 70.2732 39.4208 70.5896 39.3327C70.904 39.2452 71.1719 39.2888 71.3931 39.4637C71.6164 39.638 71.7724 39.8844 71.861 40.2028L71.8874 40.2977C71.9761 40.616 71.9699 40.9075 71.8689 41.1722C71.7698 41.4362 71.5631 41.6121 71.2487 41.6996C70.9323 41.7877 70.6625 41.7446 70.4392 41.5702C70.2179 41.3954 70.063 41.1487 69.9743 40.8304L69.9479 40.7355ZM72.6145 38.8456L73.6526 38.5565L74.4141 41.2912L75.0755 41.107L74.314 38.3723L75.3492 38.0841L75.2071 37.5739L72.4724 38.3354L72.6145 38.8456ZM78.792 40.0722L79.6165 39.8426L77.424 38.3501L77.1239 38.8907L78.792 40.0722ZM76.4706 38.6795L76.6118 39.1867L77.5343 38.9298L78.5439 36.6448L77.8024 36.8513L77.0905 38.5069L76.4706 38.6795ZM76.4232 37.2353L75.7618 37.4195L76.6653 40.6643L77.3267 40.4802L76.4232 37.2353ZM79.436 38.1957C79.5726 38.6861 79.8264 39.0469 80.1976 39.2781C80.5683 39.5072 81.0215 39.5472 81.5574 39.398C81.8836 39.3072 82.1438 39.1665 82.338 38.9761C82.5341 38.7851 82.6633 38.5989 82.7258 38.4175L82.1982 38.1873C82.1408 38.3332 82.0481 38.4709 81.9201 38.6003C81.7921 38.7297 81.6233 38.8236 81.4137 38.8819C81.0755 38.9761 80.7946 38.935 80.5708 38.7587C80.3469 38.5824 80.1902 38.333 80.1004 38.0107L80.074 37.9158C79.9842 37.5935 79.9856 37.3002 80.0782 37.0357C80.1708 36.7713 80.3614 36.5989 80.6501 36.5185C80.9467 36.436 81.18 36.4626 81.3499 36.5985C81.5193 36.7325 81.6368 36.9171 81.7023 37.1524L81.7061 37.1545L79.7604 37.6963L79.8991 38.1946L82.5122 37.467L82.4379 37.2001C82.3008 36.7077 82.0632 36.352 81.7252 36.1329C81.3892 35.9132 80.9839 35.8695 80.5094 36.0016C80.0407 36.1321 79.7063 36.3925 79.506 36.7828C79.3057 37.1731 79.2736 37.6124 79.4096 38.1008L79.436 38.1957Z" fill="#006EDC" fill-opacity="0.5"/>
<rect x="0.48537" y="29.8745" width="109.559" height="35.4688" rx="2.75868" transform="rotate(-15.56 0.48537 29.8745)" stroke="#007AFF" stroke-opacity="0.5" stroke-width="0.788195"/>
<defs>
<clipPath id="clip0_255_18937">
<rect width="94.5835" height="15.5495" fill="white" transform="translate(8.63867 31.2471) rotate(-15.56)"/>
</clipPath>
</defs>
</svg>
