<svg width="40" height="40" viewBox="0 0 40 40" fill="none" xmlns="http://www.w3.org/2000/svg">
<circle cx="20" cy="20" r="20" fill="#E21D26"/>
<path d="M20.7711 11.3585C20.4484 10.7261 19.5448 10.7261 19.2221 11.3585L17.0259 15.6618C16.8996 15.9094 16.6625 16.0817 16.388 16.1253L11.6167 16.8842C10.9155 16.9957 10.6363 17.8551 11.138 18.3574L14.552 21.7758C14.7484 21.9725 14.839 22.2512 14.7957 22.5258L14.043 27.2981C13.9324 27.9994 14.6634 28.5305 15.2962 28.2086L19.6023 26.018C19.8501 25.892 20.1431 25.892 20.3909 26.018L24.697 28.2086C25.3298 28.5305 26.0608 27.9994 25.9502 27.2981L25.1975 22.5258C25.1542 22.2512 25.2448 21.9725 25.4412 21.7758L28.8552 18.3574C29.3569 17.8551 29.0777 16.9957 28.3765 16.8842L23.6052 16.1253C23.3307 16.0817 23.0936 15.9094 22.9673 15.6618L20.7711 11.3585Z" stroke="white" stroke-width="1.30435"/>
</svg>
