<svg width="140" height="49" viewBox="0 0 140 49" fill="none" xmlns="http://www.w3.org/2000/svg">
<path d="M30.8139 32.5367C30.8139 41.0839 23.916 48.0128 15.407 48.0128C6.89793 48.0128 0 41.0839 0 32.5367C0 23.9894 6.89793 17.0605 15.407 17.0605C23.916 17.0605 30.8139 23.9894 30.8139 32.5367Z" fill="#E21D26"/>
<path d="M25.0914 32.6114L8.38833 18.7178L11.6463 32.5368L8.3961 46.3393L25.0914 32.6114Z" fill="white"/>
<path d="M11.6463 32.5368L0 32.5367C0 39.8158 4.82483 44.7476 8.41117 46.3477L11.6463 32.5368Z" fill="#1D1D1F"/>
<path d="M11.6463 32.5368L0 32.5367C0 25.2575 4.44488 20.8425 8.41117 18.7259L11.6463 32.5368Z" fill="url(#paint0_linear_255_18901)"/>
<path fill-rule="evenodd" clip-rule="evenodd" d="M13.4875 4.96874C13.4999 6.31861 13.4876 6.25243 13.7264 6.25411C14.3819 6.25863 16.5373 6.39917 17.1826 6.47931C20.4276 6.88257 23.8242 7.96887 26.837 9.56708C28.0902 10.2319 30.719 12.051 31.8065 13.006C34.4057 15.2886 36.6952 18.197 38.1859 21.1101C38.7299 22.1734 39.2891 23.4401 39.3422 23.7299C39.3854 23.9657 39.4064 23.9753 39.6673 23.8793C39.8207 23.8228 40.1995 23.6856 40.5091 23.5743C41.3186 23.2835 41.3126 23.2939 41.073 22.6003C40.0626 19.6755 37.1077 15.2554 34.46 12.7084C30.5513 8.94823 26.0042 6.40272 20.9484 5.14452C19.7457 4.84518 19.5364 4.80416 18.0406 4.57407C16.7988 4.38306 13.9886 4.17319 13.6039 4.24273C13.5197 4.25794 13.483 4.48634 13.4875 4.96874ZM13.6827 8.63949C13.6779 8.90308 13.6775 9.28175 13.6818 9.48109C13.686 9.68045 13.6833 9.91318 13.6756 9.99816C13.6642 10.1247 13.792 10.1564 14.3779 10.1726C20.7057 10.3471 26.6464 13.0405 30.9188 17.6719C32.5364 19.4254 33.8435 21.4247 34.9132 23.7821C35.1942 24.4014 35.4421 24.9205 35.4642 24.9357C35.5172 24.9724 37.1881 24.3661 37.2557 24.2857C37.37 24.1497 36.2376 21.7255 35.3748 20.259C34.952 19.5405 33.8201 17.9564 33.193 17.206C30.9656 14.5401 28.1482 12.3082 25.1256 10.8147C22.3029 9.42018 19.3793 8.57978 16.3318 8.28701C15.4347 8.2008 13.8969 8.12321 13.72 8.15519C13.7043 8.15802 13.6874 8.37593 13.6827 8.63949ZM13.697 12.7758C13.6934 13.0641 13.7012 13.508 13.7142 13.7622L13.7379 14.2243L14.3643 14.2177C15.2131 14.2085 16.8699 14.4165 18.0995 14.6865C20.8879 15.2987 23.796 16.7348 26.0561 18.6155C28.2809 20.4669 30.263 23.1253 31.3309 25.6899C31.576 26.2784 31.6491 26.3828 31.7975 26.356C31.9491 26.3286 33.1572 25.8732 33.4424 25.736C33.5661 25.6764 33.26 24.9231 32.5659 23.5792C31.3288 21.184 29.6598 19.0556 27.6612 17.3248C26.8297 16.6048 25.1294 15.4027 24.2124 14.8869C22.132 13.7164 19.4097 12.7786 17.0621 12.4238C16.1123 12.2802 14.256 12.1518 13.9444 12.2081C13.7212 12.2484 13.7029 12.2906 13.697 12.7758Z" fill="#1D1D1F"/>
<path fill-rule="evenodd" clip-rule="evenodd" d="M120.764 29.2026C120.432 29.2241 120.057 29.2682 119.778 29.3188C118.953 29.4684 118.079 29.8248 117.385 30.2948C116.989 30.5625 116.381 31.0467 115.895 31.4821C115.78 31.5845 115.761 31.6063 115.772 31.622C115.808 31.6734 117.936 34.2257 117.943 34.2257C117.948 34.2257 118.009 34.1752 118.079 34.1135C118.723 33.5477 119.399 33.0772 119.868 32.8679C120.249 32.6977 120.574 32.624 120.944 32.6236C121.309 32.6233 121.588 32.6951 121.857 32.8583C122.142 33.0317 122.303 33.2793 122.359 33.6295C122.38 33.7618 122.377 34.0652 122.353 34.2199C122.257 34.8506 121.971 35.3439 121.14 36.3092C120.372 37.2024 119.745 37.8748 117.639 40.0597L115.916 41.8481L115.915 43.188L115.915 44.5278H121.259H126.604V42.8494V41.171L123.819 41.1681L121.034 41.1651V41.1116V41.0581L121.547 40.586C122.554 39.658 123.028 39.2039 123.657 38.5667C124.517 37.6946 124.967 37.1656 125.35 36.5747C125.97 35.6191 126.247 34.7906 126.312 33.7048C126.342 33.1915 126.305 32.7324 126.198 32.3079C126.135 32.0555 126.066 31.866 125.945 31.6154C125.564 30.8201 124.957 30.2145 124.103 29.7745C123.525 29.4773 122.937 29.3082 122.189 29.224C122.003 29.2031 121.888 29.1988 121.445 29.1959C121.157 29.194 120.85 29.197 120.764 29.2026ZM130.808 34.0071L127.742 38.6154L127.744 40.1102L127.747 41.605L130.684 41.6079L133.621 41.6109V43.0693V44.5278H135.581H136.083C136.888 44.5278 137.541 43.8748 137.541 43.0693V43.0693V41.6108H138.358H139.174V40.0828V38.5549H138.358H137.541V33.9768V29.3987L135.708 29.3988L133.875 29.3989L130.808 34.0071ZM133.704 34.57C133.707 34.5748 133.704 34.6107 133.699 34.6498C133.683 34.7656 133.656 35.3615 133.638 35.9562C133.628 36.2971 133.622 36.9065 133.621 37.5333L133.621 38.5549H132.405H131.188L131.542 38.0137C132.374 36.7431 132.996 35.7819 133.093 35.6147C133.248 35.35 133.446 34.9393 133.581 34.6048C133.598 34.5638 133.602 34.5613 133.649 34.5613C133.676 34.5613 133.701 34.5652 133.704 34.57Z" fill="#1D1D1F"/>
<path fill-rule="evenodd" clip-rule="evenodd" d="M78.7056 28.2899C78.0584 28.6401 77.9147 28.9692 77.9109 30.1191L77.9071 31.1789H79.8048H81.7018L81.6271 29.6405L81.5525 28.1022L80.3397 28.082C79.6733 28.0707 78.9379 28.1645 78.7056 28.2899ZM45.2101 28.8722C42.5004 30.2356 41.3243 32.7795 41.5054 36.8864C41.622 39.5388 42.1072 40.8332 43.5564 42.3604C44.9235 43.8008 46.4147 44.3407 48.5406 44.3407C51.03 44.3407 52.3714 43.6731 53.4555 42.3178C54.7641 40.6815 55.2623 38.816 55.2623 36.1664C55.2623 33.5053 54.8482 31.8597 53.4555 30.2902C52.0447 28.7004 50.8543 28.1987 48.4764 28.1919C46.8917 28.1874 46.3453 28.3012 45.2101 28.8722ZM70.6936 29.0378V29.0378C70.246 29.4198 69.9882 29.9787 69.9882 30.5671V36.0023C69.9882 42.0729 70.0123 42.3968 70.5153 43.0684C71.1712 43.9439 73.0086 44.4569 74.7017 44.2372L75.8958 44.0821V42.7427V41.4033H75.0663C73.75 41.4033 73.6333 41.115 73.6333 37.8622V34.9196H74.7646H75.8958V33.6727V32.4258H74.7646H73.6333V30.4308V28.4358H72.5162C71.6974 28.4358 71.2105 28.5967 70.6936 29.0378ZM50.0726 31.9283C50.8704 32.8691 51.1693 34.2759 51.03 37.1673C50.9031 39.8022 50.296 41.0752 48.939 41.2562C48.413 41.3263 47.7964 41.3147 47.4555 41.0931C46.3128 40.3504 45.8587 39.4682 45.8597 36.3442C45.8605 33.9941 46.0037 32.6972 46.6576 31.9283C47.1044 31.403 47.5822 31.2153 48.4764 31.2153C49.3706 31.2153 49.7095 31.5003 50.0726 31.9283ZM62.8235 32.6134C62.321 32.8622 61.728 33.45 61.4409 33.9837C61.1644 34.4976 60.8815 34.9188 60.8124 34.9193C60.7433 34.9198 60.6867 34.3872 60.6867 33.7356V32.5505H58.927H57.1672V40.2811V48.0117H58.378C58.378 48.0117 59.6605 48.0706 60.3149 47.4215C61.0316 46.7105 61.0638 46.5848 61.0638 44.4981V42.3178L61.8934 43.2699C61.9845 43.3644 62.6547 44.2825 64.1682 44.3407C64.3462 44.3142 65.617 44.4559 66.6935 43.3414C67.9456 42.0452 68.3549 40.7864 68.3526 38.238C68.3503 35.2465 67.4147 33.239 65.6894 32.5241C64.5807 32.0645 63.8871 32.0862 62.8235 32.6134ZM89.0551 32.538C88.6192 32.7263 87.9758 33.2984 87.626 33.8096L86.9889 34.7388L86.9104 33.6448L86.8072 32.4031H85.1157H83.4374V38.2747V44.1464H85.3229H87.2085V40.0318C87.2085 36.2495 87.2494 35.8767 87.7115 35.4183C87.991 35.1411 88.3836 35.1411 88.5911 35.1411C88.7985 35.1411 89.1943 35.144 89.4707 35.4183C89.9252 35.8692 89.9737 36.2495 89.9737 39.3746C89.9737 42.4951 90.0247 42.8963 90.4952 43.4893C90.9433 44.0549 91.2056 44.1464 92.3801 44.1464H93.7448L93.7486 40.3435C93.7525 36.0315 93.8605 35.4463 95.1331 35.2286C96.4776 35.2286 96.7614 35.6793 96.7614 39.5447C96.907 44.0637 96.951 44.1464 99.2234 44.1464H100.585L100.496 39.2101C100.396 33.6842 100.061 33.233 98.6387 32.5635C97.2165 31.8939 95.6259 32.2181 94.482 33.4106L93.5852 34.3463L93.1678 33.6251C92.7299 32.8687 91.3958 32.1697 90.4218 32.1862C90.1064 32.1917 89.4911 32.35 89.0551 32.538ZM105.486 32.5156C103.727 33.0081 101.798 34.9542 102.58 35.4463C103.272 35.8811 105.296 35.6916 106.077 35.1191C106.938 34.4879 108.407 34.3919 108.942 34.932C109.138 35.1308 109.335 35.6293 109.378 36.0397C109.457 36.7859 109.456 36.7859 107.823 36.9485C105.504 37.1789 104.192 37.5776 103.3 38.3223C101.782 39.5893 101.419 41.0878 102.25 42.6542C103.479 44.9684 107.459 44.9811 109.012 42.6756C109.548 41.8786 109.582 41.8641 109.582 42.4333C109.582 42.7659 109.759 43.2874 109.974 43.5921C110.3 44.0544 110.602 44.1464 111.796 44.1467H113.227L113.144 39.4709C113.052 34.226 112.906 33.6994 111.328 32.8874C110.13 32.2707 107.058 32.0752 105.486 32.5156ZM77.9071 38.2854V44.1464H79.1754C80.1871 44.1464 80.5688 44.0225 81.061 43.5342C81.6763 42.9235 81.6776 42.912 81.6776 37.7014V32.4805L79.7926 32.4523L77.9071 32.4241V38.2854ZM63.7273 35.1951C64.137 35.6443 64.2062 36.1156 64.2062 38.459C64.2062 41.0368 64.1713 41.226 63.6127 41.6746C62.9026 42.2449 62.3165 42.1695 61.681 41.5393C61.1038 40.9669 61.0638 40.7572 61.0638 38.2973C61.0638 36.0001 61.1274 35.6046 61.5666 35.1689C62.2179 34.5228 63.1239 34.5338 63.7273 35.1951ZM109.42 39.72C109.258 41.2475 108.477 42.1514 107.32 42.1514C106.559 42.1514 105.811 41.3988 105.811 40.6332C105.811 39.5762 107.374 38.4996 109.005 38.4333C109.525 38.4121 109.55 38.4906 109.42 39.72Z" fill="#1D1D1F"/>
<defs>
<linearGradient id="paint0_linear_255_18901" x1="6.33171" y1="22.0199" x2="10.7375" y2="33.023" gradientUnits="userSpaceOnUse">
<stop stop-color="#2A2927"/>
<stop offset="0.945833" stop-color="#525252"/>
</linearGradient>
</defs>
</svg>
