<svg width="24" height="25" viewBox="0 0 24 25" fill="none" xmlns="http://www.w3.org/2000/svg">
<path fill-rule="evenodd" clip-rule="evenodd" d="M0.5 6.90541C0.5 3.64394 3.14394 1 6.40541 1H17.5946C20.8561 1 23.5 3.64394 23.5 6.90541V18.0946C23.5 21.3561 20.8561 24 17.5946 24H6.40541C3.14394 24 0.5 21.3561 0.5 18.0946V6.90541ZM7.22727 13.3333C7.22727 14.0697 6.61675 14.6666 5.86364 14.6666C5.11052 14.6666 4.5 14.0697 4.5 13.3333C4.5 12.5969 5.11052 12 5.86364 12C6.61675 12 7.22727 12.5969 7.22727 13.3333ZM12 14.6667C11.2469 14.6667 10.6364 14.0697 10.6364 13.3333C10.6364 12.597 11.2469 12 12 12H18.1364C18.8895 12 19.5 12.597 19.5 13.3333C19.5 14.0697 18.8895 14.6667 18.1364 14.6667H12ZM19.5 18.6667C19.5 19.403 18.8895 20 18.1364 20C17.3832 20 16.7727 19.403 16.7727 18.6667C16.7727 17.9303 17.3832 17.3333 18.1364 17.3333C18.8895 17.3333 19.5 17.9303 19.5 18.6667ZM4.5 18.6667C4.5 19.403 5.11052 20 5.86364 20H12C12.7531 20 13.3636 19.403 13.3636 18.6667C13.3636 17.9303 12.7531 17.3333 12 17.3333H5.86364C5.11052 17.3333 4.5 17.9303 4.5 18.6667ZM3.5 8.75H20.5V7.25H3.5V8.75Z" fill="#BEBEB6" fill-opacity="0.4"/>
</svg>
