<svg width="29" height="28" viewBox="0 0 29 28" fill="none" xmlns="http://www.w3.org/2000/svg">
<path d="M2.5 10C2.5 5.58172 6.08172 2 10.5 2H18.5C22.9183 2 26.5 5.58172 26.5 10V18C26.5 22.4183 22.9183 26 18.5 26H10.5C6.08172 26 2.5 22.4183 2.5 18V10Z" fill="#D8D8DC"/>
<path d="M2.5 11.6H13.1V16.4H2.5V11.6Z" fill="#F7F6F9"/>
<path d="M20.0583 13.2523C20.5062 13.6501 20.5062 14.3498 20.0583 14.7476L14.7641 19.4501C14.1191 20.023 13.1 19.5651 13.1 18.7024V9.29752C13.1 8.43485 14.1191 7.97698 14.7641 8.54987L20.0583 13.2523Z" fill="#F7F6F9"/>
</svg>
