<svg width="40" height="40" viewBox="0 0 40 40" fill="none" xmlns="http://www.w3.org/2000/svg">
<circle cx="20" cy="20" r="20" fill="#F7F6F9"/>
<path d="M22.7068 23.425L24.1068 22.025C24.2953 21.8388 24.5339 21.7113 24.7935 21.6581C25.0531 21.6048 25.3226 21.6281 25.5693 21.725L27.2755 22.4063C27.5248 22.5074 27.7385 22.6801 27.8898 22.9026C28.041 23.125 28.123 23.3873 28.1255 23.6563V26.7813C28.1241 26.9643 28.0856 27.1451 28.0124 27.3128C27.9393 27.4805 27.8329 27.6317 27.6998 27.7573C27.5666 27.8828 27.4095 27.9801 27.2377 28.0433C27.066 28.1065 26.8833 28.1343 26.7005 28.125C14.7443 27.3813 12.3318 17.2563 11.8755 13.3813C11.8543 13.191 11.8737 12.9984 11.9323 12.8161C11.9909 12.6338 12.0874 12.466 12.2156 12.3237C12.3437 12.1815 12.5005 12.0679 12.6756 11.9906C12.8508 11.9132 13.0403 11.8739 13.2318 11.875H16.2505C16.5199 11.8758 16.7829 11.9572 17.0056 12.1087C17.2284 12.2601 17.4007 12.4748 17.5005 12.725L18.1818 14.4313C18.2819 14.6769 18.3075 14.9467 18.2552 15.2068C18.203 15.4669 18.0753 15.7058 17.888 15.8938L16.488 17.2938C16.488 17.2938 17.2943 22.75 22.7068 23.425Z" fill="url(#paint0_linear_15424_4433)"/>
<defs>
<linearGradient id="paint0_linear_15424_4433" x1="19.9963" y1="9.06219" x2="19.9963" y2="33.1273" gradientUnits="userSpaceOnUse">
<stop stop-color="#E51E28"/>
<stop offset="1" stop-color="#FFD6D8"/>
</linearGradient>
</defs>
</svg>
