<svg width="23" height="22" viewBox="0 0 23 22" fill="none" xmlns="http://www.w3.org/2000/svg">
<path d="M11.5 0C5.4346 0 0.5 4.9346 0.5 11C0.5 17.0654 5.4346 22 11.5 22C17.5654 22 22.5 17.0654 22.5 11C22.5 4.9346 17.5654 0 11.5 0Z" fill="#D8D8DC"/>
<path d="M15.7046 15.157C15.2762 15.6136 14.5513 15.6136 14.123 15.157L10.7021 11.5102C10.5083 11.3036 10.4004 11.0309 10.4004 10.7476V5.05134C10.4004 4.4707 10.8711 4 11.4517 4V4C12.0324 4 12.5031 4.4707 12.5031 5.05134V9.81959C12.5031 10.1029 12.6109 10.3756 12.8048 10.5822L15.7046 13.6735C16.0958 14.0906 16.0958 14.7399 15.7046 15.157V15.157Z" fill="#F7F6F9"/>
</svg>
