<svg width="335" height="45" viewBox="0 0 335 45" fill="none" xmlns="http://www.w3.org/2000/svg">
<g clip-path="url(#clip0_823_43261)">
<g filter="url(#filter0_d_823_43261)">
<mask id="path-1-inside-1_823_43261" fill="white">
<path fill-rule="evenodd" clip-rule="evenodd" d="M26.3671 5.67184C28.122 5.67184 29.7232 5.0775 30.9374 4.09951C33.0635 2.38712 35.2981 0 38.028 0V0C40.758 0 42.9925 2.38714 45.1186 4.09955C46.3329 5.07754 47.9341 5.67188 49.689 5.67188C51.4438 5.67188 53.045 5.07754 54.2593 4.09955C56.3854 2.38714 58.62 0 61.3499 0V0C64.0799 0 66.3144 2.38714 68.4405 4.09955C69.6548 5.07754 71.256 5.67188 73.0109 5.67188C74.7658 5.67188 76.367 5.07754 77.5812 4.09954C79.7074 2.38713 81.9419 0 84.6718 0V0C87.4018 0 89.6363 2.38713 91.7624 4.09954C92.9767 5.07754 94.5779 5.67188 96.3328 5.67188C98.0877 5.67188 99.6889 5.07754 100.903 4.09954C103.029 2.38713 105.264 0 107.994 0V0C110.724 0 112.958 2.38713 115.084 4.09954C116.299 5.07754 117.9 5.67188 119.655 5.67188C121.41 5.67188 123.011 5.07754 124.225 4.09954C126.351 2.38713 128.586 0 131.316 0V0C134.046 0 136.28 2.38714 138.406 4.09955C139.62 5.07754 141.222 5.67188 142.977 5.67188C144.731 5.67188 146.333 5.07754 147.547 4.09955C149.673 2.38715 151.908 0 154.638 0V0C157.367 0 159.602 2.38714 161.728 4.09955C162.942 5.07754 164.544 5.67188 166.298 5.67188C168.053 5.67188 169.655 5.07754 170.869 4.09955C172.995 2.38715 175.229 0 177.959 0V0C180.689 0 182.924 2.38714 185.05 4.09955C186.264 5.07754 187.865 5.67188 189.62 5.67188C191.375 5.67188 192.976 5.07754 194.191 4.09955C196.317 2.38715 198.551 0 201.281 0V0C204.011 0 206.246 2.38714 208.372 4.09955C209.586 5.07754 211.187 5.67188 212.942 5.67188C214.697 5.67188 216.298 5.07754 217.513 4.09955C219.639 2.38715 221.873 0 224.603 0V0C227.333 0 229.568 2.38714 231.694 4.09955C232.908 5.07754 234.509 5.67188 236.264 5.67188C238.019 5.67188 239.62 5.07754 240.835 4.09955C242.961 2.38715 245.195 0 247.925 0V0C250.655 0 252.89 2.38715 255.016 4.09955C256.23 5.07754 257.831 5.67188 259.586 5.67188C261.341 5.67188 262.942 5.07754 264.156 4.09955C266.283 2.38714 268.517 0 271.247 0V0C273.977 0 276.212 2.38714 278.338 4.09954C279.552 5.07754 281.153 5.67188 282.908 5.67188C284.663 5.67188 286.264 5.07754 287.478 4.09955C289.604 2.38714 291.839 0 294.569 0V0C297.299 0 299.533 2.38714 301.66 4.09954C302.874 5.07754 304.475 5.67188 306.23 5.67188V5.67188C311.516 5.67188 317.483 0.551955 322.063 3.19151C329.255 7.33646 334.096 15.1029 334.096 24V532C334.096 540.858 329.297 548.596 322.157 552.754C317.566 555.428 311.541 550.23 306.229 550.23V550.23C304.434 550.23 302.799 550.851 301.576 551.87C299.49 553.605 297.281 556 294.568 556V556C291.855 556 289.646 553.605 287.56 551.87C286.336 550.851 284.702 550.23 282.907 550.23C281.112 550.23 279.478 550.851 278.254 551.87C276.168 553.605 273.959 556 271.246 556V556C268.533 556 266.324 553.605 264.238 551.87C263.015 550.851 261.38 550.23 259.585 550.23C257.79 550.23 256.156 550.852 254.932 551.87C252.847 553.605 250.637 556 247.924 556V556C245.212 556 243.002 553.605 240.917 551.87C239.693 550.852 238.058 550.23 236.263 550.23C234.468 550.23 232.834 550.852 231.61 551.87C229.525 553.605 227.315 556 224.602 556V556C221.89 556 219.68 553.605 217.595 551.87C216.371 550.852 214.736 550.23 212.941 550.23C211.146 550.23 209.512 550.852 208.288 551.87C206.203 553.605 203.993 556 201.28 556V556C198.568 556 196.358 553.605 194.273 551.87C193.049 550.852 191.415 550.23 189.619 550.23C187.824 550.23 186.19 550.852 184.966 551.87C182.881 553.605 180.671 556 177.958 556V556C175.246 556 173.036 553.605 170.951 551.87C169.727 550.852 168.093 550.23 166.298 550.23C164.502 550.23 162.868 550.852 161.644 551.87C159.559 553.605 157.349 556 154.637 556V556C151.924 556 149.714 553.605 147.629 551.87C146.405 550.852 144.771 550.23 142.976 550.23C141.18 550.23 139.546 550.852 138.322 551.87C136.237 553.605 134.027 556 131.315 556V556C128.602 556 126.392 553.605 124.307 551.87C123.083 550.852 121.449 550.23 119.654 550.23C117.859 550.23 116.224 550.852 115 551.87C112.915 553.605 110.705 556 107.993 556V556C105.28 556 103.07 553.605 100.985 551.87C99.7613 550.852 98.127 550.23 96.3318 550.23C94.5366 550.23 92.9023 550.852 91.6784 551.87C89.5933 553.605 87.3835 556 84.6709 556V556C81.9583 556 79.7484 553.605 77.6633 551.87C76.4394 550.852 74.8051 550.23 73.0099 550.23C71.2147 550.23 69.5804 550.851 68.3565 551.87C66.2714 553.605 64.0616 556 61.3489 556V556C58.6363 556 56.4265 553.605 54.3413 551.87C53.1175 550.851 51.4831 550.23 49.688 550.23C47.8928 550.23 46.2584 550.852 45.0346 551.87C42.9494 553.605 40.7396 556 38.0271 556V556C35.3145 556 33.1047 553.605 31.0195 551.87C29.7957 550.851 28.1613 550.229 26.3661 550.229V550.229C21.2136 550.229 15.179 554.915 10.8686 552.092C4.32351 547.806 0 540.408 0 532V24C0 15.5515 4.36537 8.12264 10.9635 3.8459C15.266 1.05716 21.2398 5.67184 26.3671 5.67184V5.67184Z"/>
</mask>
<path fill-rule="evenodd" clip-rule="evenodd" d="M26.3671 5.67184C28.122 5.67184 29.7232 5.0775 30.9374 4.09951C33.0635 2.38712 35.2981 0 38.028 0V0C40.758 0 42.9925 2.38714 45.1186 4.09955C46.3329 5.07754 47.9341 5.67188 49.689 5.67188C51.4438 5.67188 53.045 5.07754 54.2593 4.09955C56.3854 2.38714 58.62 0 61.3499 0V0C64.0799 0 66.3144 2.38714 68.4405 4.09955C69.6548 5.07754 71.256 5.67188 73.0109 5.67188C74.7658 5.67188 76.367 5.07754 77.5812 4.09954C79.7074 2.38713 81.9419 0 84.6718 0V0C87.4018 0 89.6363 2.38713 91.7624 4.09954C92.9767 5.07754 94.5779 5.67188 96.3328 5.67188C98.0877 5.67188 99.6889 5.07754 100.903 4.09954C103.029 2.38713 105.264 0 107.994 0V0C110.724 0 112.958 2.38713 115.084 4.09954C116.299 5.07754 117.9 5.67188 119.655 5.67188C121.41 5.67188 123.011 5.07754 124.225 4.09954C126.351 2.38713 128.586 0 131.316 0V0C134.046 0 136.28 2.38714 138.406 4.09955C139.62 5.07754 141.222 5.67188 142.977 5.67188C144.731 5.67188 146.333 5.07754 147.547 4.09955C149.673 2.38715 151.908 0 154.638 0V0C157.367 0 159.602 2.38714 161.728 4.09955C162.942 5.07754 164.544 5.67188 166.298 5.67188C168.053 5.67188 169.655 5.07754 170.869 4.09955C172.995 2.38715 175.229 0 177.959 0V0C180.689 0 182.924 2.38714 185.05 4.09955C186.264 5.07754 187.865 5.67188 189.62 5.67188C191.375 5.67188 192.976 5.07754 194.191 4.09955C196.317 2.38715 198.551 0 201.281 0V0C204.011 0 206.246 2.38714 208.372 4.09955C209.586 5.07754 211.187 5.67188 212.942 5.67188C214.697 5.67188 216.298 5.07754 217.513 4.09955C219.639 2.38715 221.873 0 224.603 0V0C227.333 0 229.568 2.38714 231.694 4.09955C232.908 5.07754 234.509 5.67188 236.264 5.67188C238.019 5.67188 239.62 5.07754 240.835 4.09955C242.961 2.38715 245.195 0 247.925 0V0C250.655 0 252.89 2.38715 255.016 4.09955C256.23 5.07754 257.831 5.67188 259.586 5.67188C261.341 5.67188 262.942 5.07754 264.156 4.09955C266.283 2.38714 268.517 0 271.247 0V0C273.977 0 276.212 2.38714 278.338 4.09954C279.552 5.07754 281.153 5.67188 282.908 5.67188C284.663 5.67188 286.264 5.07754 287.478 4.09955C289.604 2.38714 291.839 0 294.569 0V0C297.299 0 299.533 2.38714 301.66 4.09954C302.874 5.07754 304.475 5.67188 306.23 5.67188V5.67188C311.516 5.67188 317.483 0.551955 322.063 3.19151C329.255 7.33646 334.096 15.1029 334.096 24V532C334.096 540.858 329.297 548.596 322.157 552.754C317.566 555.428 311.541 550.23 306.229 550.23V550.23C304.434 550.23 302.799 550.851 301.576 551.87C299.49 553.605 297.281 556 294.568 556V556C291.855 556 289.646 553.605 287.56 551.87C286.336 550.851 284.702 550.23 282.907 550.23C281.112 550.23 279.478 550.851 278.254 551.87C276.168 553.605 273.959 556 271.246 556V556C268.533 556 266.324 553.605 264.238 551.87C263.015 550.851 261.38 550.23 259.585 550.23C257.79 550.23 256.156 550.852 254.932 551.87C252.847 553.605 250.637 556 247.924 556V556C245.212 556 243.002 553.605 240.917 551.87C239.693 550.852 238.058 550.23 236.263 550.23C234.468 550.23 232.834 550.852 231.61 551.87C229.525 553.605 227.315 556 224.602 556V556C221.89 556 219.68 553.605 217.595 551.87C216.371 550.852 214.736 550.23 212.941 550.23C211.146 550.23 209.512 550.852 208.288 551.87C206.203 553.605 203.993 556 201.28 556V556C198.568 556 196.358 553.605 194.273 551.87C193.049 550.852 191.415 550.23 189.619 550.23C187.824 550.23 186.19 550.852 184.966 551.87C182.881 553.605 180.671 556 177.958 556V556C175.246 556 173.036 553.605 170.951 551.87C169.727 550.852 168.093 550.23 166.298 550.23C164.502 550.23 162.868 550.852 161.644 551.87C159.559 553.605 157.349 556 154.637 556V556C151.924 556 149.714 553.605 147.629 551.87C146.405 550.852 144.771 550.23 142.976 550.23C141.18 550.23 139.546 550.852 138.322 551.87C136.237 553.605 134.027 556 131.315 556V556C128.602 556 126.392 553.605 124.307 551.87C123.083 550.852 121.449 550.23 119.654 550.23C117.859 550.23 116.224 550.852 115 551.87C112.915 553.605 110.705 556 107.993 556V556C105.28 556 103.07 553.605 100.985 551.87C99.7613 550.852 98.127 550.23 96.3318 550.23C94.5366 550.23 92.9023 550.852 91.6784 551.87C89.5933 553.605 87.3835 556 84.6709 556V556C81.9583 556 79.7484 553.605 77.6633 551.87C76.4394 550.852 74.8051 550.23 73.0099 550.23C71.2147 550.23 69.5804 550.851 68.3565 551.87C66.2714 553.605 64.0616 556 61.3489 556V556C58.6363 556 56.4265 553.605 54.3413 551.87C53.1175 550.851 51.4831 550.23 49.688 550.23C47.8928 550.23 46.2584 550.852 45.0346 551.87C42.9494 553.605 40.7396 556 38.0271 556V556C35.3145 556 33.1047 553.605 31.0195 551.87C29.7957 550.851 28.1613 550.229 26.3661 550.229V550.229C21.2136 550.229 15.179 554.915 10.8686 552.092C4.32351 547.806 0 540.408 0 532V24C0 15.5515 4.36537 8.12264 10.9635 3.8459C15.266 1.05716 21.2398 5.67184 26.3671 5.67184V5.67184Z" fill="white"/>
<path d="M10.8686 552.092L10.3207 552.929L10.8686 552.092ZM31.0195 551.87L31.6592 551.101L31.0195 551.87ZM45.0346 551.87L44.395 551.101L45.0346 551.87ZM54.3413 551.87L54.981 551.101L54.3413 551.87ZM254.932 551.87L254.292 551.101L254.932 551.87ZM264.238 551.87L263.599 552.639L264.238 551.87ZM278.254 551.87L277.614 551.101L278.254 551.87ZM287.56 551.87L288.2 551.101L287.56 551.87ZM301.576 551.87L300.936 551.101L301.576 551.87ZM322.063 3.19151L321.563 4.05792L322.063 3.19151ZM301.66 4.09954L302.287 3.32074L301.66 4.09954ZM278.338 4.09954L278.965 3.32074L278.338 4.09954ZM255.016 4.09955L255.643 3.32074L255.016 4.09955ZM231.694 4.09955L232.321 3.32074L231.694 4.09955ZM91.6784 551.87L92.3181 552.639L91.6784 551.87ZM194.191 4.09955L194.818 4.87836L194.191 4.09955ZM100.985 551.87L100.346 552.639L100.985 551.87ZM185.05 4.09955L185.677 3.32074L185.05 4.09955ZM115 551.87L115.64 552.639L115 551.87ZM170.869 4.09955L171.496 4.87836L170.869 4.09955ZM161.728 4.09955L162.355 3.32074L161.728 4.09955ZM147.629 551.87L146.989 552.639L147.629 551.87ZM138.406 4.09955L139.033 3.32074L138.406 4.09955ZM184.966 551.87L184.326 551.101L184.966 551.87ZM100.903 4.09954L101.53 4.87834L100.903 4.09954ZM194.273 551.87L193.633 552.639L194.273 551.87ZM231.61 551.87L230.97 551.101L231.61 551.87ZM54.2593 4.09955L53.632 3.32074L54.2593 4.09955ZM208.288 551.87L208.928 552.639L208.288 551.87ZM77.5812 4.09954L78.2085 4.87834L77.5812 4.09954ZM161.644 551.87L162.284 552.639L161.644 551.87ZM124.225 4.09954L124.852 4.87834L124.225 4.09954ZM68.3565 551.87L68.9962 552.639L68.3565 551.87ZM217.513 4.09955L218.14 4.87836L217.513 4.09955ZM240.917 551.87L240.277 552.639L240.917 551.87ZM138.322 551.87L137.683 551.101L138.322 551.87ZM147.547 4.09955L148.174 4.87836L147.547 4.09955ZM240.835 4.09955L241.462 4.87836L240.835 4.09955ZM217.595 551.87L218.234 551.101L217.595 551.87ZM68.4405 4.09955L69.0678 3.32074L68.4405 4.09955ZM287.478 4.09955L286.851 3.32074L287.478 4.09955ZM170.951 551.87L171.59 551.101L170.951 551.87ZM77.6633 551.87L78.3029 551.101L77.6633 551.87ZM208.372 4.09955L208.999 3.32074L208.372 4.09955ZM30.3102 3.3207C29.2751 4.15433 27.8957 4.67184 26.3671 4.67184V6.67184C28.3482 6.67184 30.1712 6.00068 31.5647 4.87832L30.3102 3.3207ZM49.689 4.67188C48.1603 4.67188 46.7809 4.15437 45.7459 3.32074L44.4913 4.87835C45.8849 6.00072 47.7078 6.67188 49.689 6.67188V4.67188ZM53.632 3.32074C52.597 4.15437 51.2176 4.67188 49.689 4.67188V6.67188C51.6701 6.67188 53.4931 6.00072 54.8866 4.87836L53.632 3.32074ZM73.0109 4.67188C71.4822 4.67188 70.1028 4.15437 69.0678 3.32074L67.8133 4.87836C69.2068 6.00072 71.0298 6.67188 73.0109 6.67188V4.67188ZM76.954 3.32073C75.919 4.15436 74.5395 4.67188 73.0109 4.67188V6.67188C74.992 6.67188 76.815 6.00071 78.2085 4.87834L76.954 3.32073ZM96.3328 4.67188C94.8041 4.67188 93.4247 4.15436 92.3897 3.32073L91.1351 4.87835C92.5287 6.00071 94.3517 6.67188 96.3328 6.67188V4.67188ZM100.276 3.32073C99.2409 4.15436 97.8614 4.67188 96.3328 4.67188V6.67188C98.3139 6.67188 100.137 6.00071 101.53 4.87834L100.276 3.32073ZM119.655 4.67188C118.126 4.67188 116.747 4.15436 115.712 3.32073L114.457 4.87835C115.851 6.00071 117.674 6.67188 119.655 6.67188V4.67188ZM123.598 3.32073C122.563 4.15436 121.183 4.67188 119.655 4.67188V6.67188C121.636 6.67188 123.459 6.00071 124.852 4.87834L123.598 3.32073ZM142.977 4.67188C141.448 4.67188 140.069 4.15437 139.033 3.32074L137.779 4.87835C139.172 6.00072 140.995 6.67188 142.977 6.67188V4.67188ZM146.92 3.32074C145.885 4.15437 144.505 4.67188 142.977 4.67188V6.67188C144.958 6.67188 146.781 6.00072 148.174 4.87836L146.92 3.32074ZM166.298 4.67188C164.77 4.67188 163.39 4.15437 162.355 3.32074L161.101 4.87836C162.494 6.00072 164.317 6.67188 166.298 6.67188V4.67188ZM170.242 3.32074C169.207 4.15437 167.827 4.67188 166.298 4.67188V6.67188C168.28 6.67188 170.103 6.00072 171.496 4.87836L170.242 3.32074ZM189.62 4.67188C188.092 4.67188 186.712 4.15437 185.677 3.32074L184.423 4.87836C185.816 6.00072 187.639 6.67188 189.62 6.67188V4.67188ZM193.563 3.32074C192.528 4.15437 191.149 4.67188 189.62 4.67188V6.67188C191.601 6.67188 193.424 6.00072 194.818 4.87836L193.563 3.32074ZM212.942 4.67188C211.414 4.67188 210.034 4.15437 208.999 3.32074L207.745 4.87836C209.138 6.00072 210.961 6.67188 212.942 6.67188V4.67188ZM216.885 3.32074C215.85 4.15437 214.471 4.67188 212.942 4.67188V6.67188C214.923 6.67188 216.746 6.00072 218.14 4.87836L216.885 3.32074ZM236.264 4.67188C234.736 4.67188 233.356 4.15437 232.321 3.32074L231.067 4.87836C232.46 6.00072 234.283 6.67188 236.264 6.67188V4.67188ZM240.207 3.32074C239.172 4.15437 237.793 4.67188 236.264 4.67188V6.67188C238.245 6.67188 240.068 6.00072 241.462 4.87836L240.207 3.32074ZM259.586 4.67188C258.057 4.67188 256.678 4.15437 255.643 3.32074L254.388 4.87836C255.782 6.00072 257.605 6.67188 259.586 6.67188V4.67188ZM263.529 3.32074C262.494 4.15437 261.115 4.67188 259.586 4.67188V6.67188C261.567 6.67188 263.39 6.00072 264.784 4.87835L263.529 3.32074ZM282.908 4.67188C281.379 4.67188 280 4.15437 278.965 3.32074L277.71 4.87835C279.104 6.00072 280.927 6.67188 282.908 6.67188V4.67188ZM286.851 3.32074C285.816 4.15437 284.437 4.67188 282.908 4.67188V6.67188C284.889 6.67188 286.712 6.00072 288.106 4.87836L286.851 3.32074ZM306.23 4.67188C304.701 4.67188 303.322 4.15437 302.287 3.32074L301.032 4.87835C302.426 6.00072 304.249 6.67188 306.23 6.67188V4.67188ZM335.096 24C335.096 14.7309 330.051 6.64125 322.562 2.32511L321.563 4.05792C328.458 8.03167 333.096 15.4748 333.096 24H335.096ZM335.096 532V24H333.096V532H335.096ZM322.66 553.618C330.095 549.288 335.096 541.229 335.096 532H333.096C333.096 540.488 328.499 547.903 321.653 551.89L322.66 553.618ZM302.215 552.639C303.258 551.771 304.665 551.23 306.229 551.23V549.23C304.202 549.23 302.341 549.932 300.936 551.101L302.215 552.639ZM288.2 551.101C286.795 549.932 284.934 549.23 282.907 549.23V551.23C284.471 551.23 285.878 551.771 286.921 552.639L288.2 551.101ZM282.907 549.23C280.88 549.23 279.019 549.932 277.614 551.101L278.893 552.639C279.936 551.771 281.343 551.23 282.907 551.23V549.23ZM259.585 551.23C261.149 551.23 262.556 551.771 263.599 552.639L264.878 551.101C263.473 549.932 261.612 549.23 259.585 549.23V551.23ZM255.571 552.639C256.614 551.771 258.021 551.23 259.585 551.23V549.23C257.559 549.23 255.697 549.932 254.292 551.101L255.571 552.639ZM241.556 551.101C240.151 549.932 238.29 549.23 236.263 549.23V551.23C237.827 551.23 239.235 551.771 240.277 552.639L241.556 551.101ZM236.263 549.23C234.237 549.23 232.375 549.932 230.97 551.101L232.249 552.639C233.292 551.771 234.699 551.23 236.263 551.23V549.23ZM212.941 551.23C214.505 551.23 215.913 551.771 216.955 552.639L218.234 551.101C216.829 549.932 214.968 549.23 212.941 549.23V551.23ZM208.928 552.639C209.97 551.771 211.377 551.23 212.941 551.23V549.23C210.915 549.23 209.054 549.932 207.648 551.101L208.928 552.639ZM194.912 551.101C193.507 549.932 191.646 549.23 189.619 549.23V551.23C191.183 551.23 192.591 551.771 193.633 552.639L194.912 551.101ZM189.619 549.23C187.593 549.23 185.732 549.932 184.326 551.101L185.606 552.639C186.648 551.771 188.056 551.23 189.619 551.23V549.23ZM166.298 551.23C167.861 551.23 169.269 551.771 170.311 552.639L171.59 551.101C170.185 549.932 168.324 549.23 166.298 549.23V551.23ZM162.284 552.639C163.326 551.771 164.734 551.23 166.298 551.23V549.23C164.271 549.23 162.41 549.932 161.005 551.101L162.284 552.639ZM148.269 551.101C146.863 549.932 145.002 549.23 142.976 549.23V551.23C144.539 551.23 145.947 551.771 146.989 552.639L148.269 551.101ZM142.976 549.23C140.949 549.23 139.088 549.932 137.683 551.101L138.962 552.639C140.004 551.771 141.412 551.23 142.976 551.23V549.23ZM119.654 551.23C121.218 551.23 122.625 551.771 123.667 552.639L124.947 551.101C123.541 549.932 121.68 549.23 119.654 549.23V551.23ZM115.64 552.639C116.682 551.771 118.09 551.23 119.654 551.23V549.23C117.627 549.23 115.766 549.932 114.361 551.101L115.64 552.639ZM101.625 551.101C100.22 549.932 98.3583 549.23 96.3318 549.23V551.23C97.8956 551.23 99.3031 551.771 100.346 552.639L101.625 551.101ZM96.3318 549.23C94.3053 549.23 92.4441 549.932 91.0388 551.101L92.3181 552.639C93.3605 551.771 94.768 551.23 96.3318 551.23V549.23ZM73.0099 551.23C74.5737 551.23 75.9812 551.771 77.0237 552.639L78.3029 551.101C76.8976 549.932 75.0364 549.23 73.0099 549.23V551.23ZM68.9962 552.639C70.0386 551.771 71.4461 551.23 73.0099 551.23V549.23C70.9834 549.23 69.1222 549.932 67.7169 551.101L68.9962 552.639ZM54.981 551.101C53.5757 549.932 51.7145 549.23 49.688 549.23V551.23C51.2518 551.23 52.6593 551.771 53.7017 552.639L54.981 551.101ZM49.688 549.23C47.6614 549.23 45.8002 549.932 44.395 551.101L45.6742 552.639C46.7167 551.771 48.1242 551.23 49.688 551.23V549.23ZM31.6592 551.101C30.2539 549.932 28.3927 549.229 26.3661 549.229V551.229C27.9299 551.229 29.3375 551.771 30.3799 552.639L31.6592 551.101ZM-1 532C-1 540.759 3.50549 548.466 10.3207 552.929L11.4164 551.256C5.14153 547.146 1 540.057 1 532H-1ZM-1 24V532H1V24H-1ZM10.4196 3.00676C3.5491 7.46003 -1 15.1985 -1 24H1C1 15.9046 5.18164 8.78525 11.5074 4.68505L10.4196 3.00676ZM11.5074 4.68505C13.239 3.56269 15.3879 3.86324 18.0676 4.67058C18.7214 4.86758 19.3824 5.08614 20.0634 5.30913C20.7391 5.53041 21.4319 5.75517 22.125 5.95517C23.5047 6.35327 24.9454 6.67184 26.3671 6.67184V4.67184C25.2251 4.67184 23.9964 4.41358 22.6795 4.03357C22.0243 3.84452 21.3621 3.62991 20.6858 3.40845C20.0147 3.1887 19.3267 2.96114 18.6445 2.75561C15.9799 1.95279 12.9905 1.34037 10.4196 3.00676L11.5074 4.68505ZM26.3661 549.229C24.9368 549.229 23.4866 549.553 22.0976 549.957C21.3997 550.16 20.7019 550.389 20.0212 550.614C19.3352 550.84 18.6693 551.062 18.0106 551.263C15.3095 552.084 13.1487 552.39 11.4164 551.256L10.3207 552.929C12.8989 554.617 15.9106 553.992 18.5925 553.176C19.2796 552.967 19.9726 552.736 20.6485 552.513C21.3297 552.288 21.9968 552.07 22.6565 551.878C23.9828 551.492 25.2191 551.229 26.3661 551.229V549.229ZM38.0271 555C36.9722 555 35.9473 554.535 34.8658 553.769C33.7515 552.981 32.7831 552.036 31.6592 551.101L30.3799 552.639C31.3411 553.438 32.5201 554.559 33.7102 555.402C34.933 556.267 36.3693 557 38.0271 557V555ZM44.395 551.101C43.271 552.036 42.3026 552.981 41.1883 553.769C40.1068 554.535 39.0819 555 38.0271 555V557C39.6848 557 41.1211 556.267 42.3439 555.402C43.534 554.559 44.713 553.438 45.6742 552.639L44.395 551.101ZM61.3489 555C60.2941 555 59.2692 554.535 58.1876 553.769C57.0733 552.981 56.1049 552.036 54.981 551.101L53.7017 552.639C54.6629 553.438 55.842 554.559 57.0321 555.402C58.2549 556.267 59.6912 557 61.3489 557V555ZM254.292 551.101C253.168 552.036 252.2 552.981 251.085 553.769C250.004 554.535 248.979 555 247.924 555V557C249.582 557 251.018 556.267 252.241 555.402C253.431 554.559 254.61 553.438 255.571 552.639L254.292 551.101ZM271.246 555C270.191 555 269.166 554.535 268.085 553.769C266.97 552.981 266.002 552.036 264.878 551.101L263.599 552.639C264.56 553.438 265.739 554.559 266.929 555.402C268.152 556.267 269.588 557 271.246 557V555ZM277.614 551.101C276.49 552.036 275.522 552.981 274.407 553.769C273.326 554.535 272.301 555 271.246 555V557C272.904 557 274.34 556.267 275.563 555.402C276.753 554.559 277.932 553.438 278.893 552.639L277.614 551.101ZM294.568 555C293.513 555 292.488 554.535 291.407 553.769C290.292 552.981 289.324 552.036 288.2 551.101L286.921 552.639C287.882 553.438 289.061 554.559 290.251 555.402C291.474 556.267 292.91 557 294.568 557V555ZM300.936 551.101C299.812 552.036 298.844 552.981 297.729 553.769C296.648 554.535 295.623 555 294.568 555V557C296.226 557 297.662 556.267 298.885 555.402C300.075 554.559 301.254 553.438 302.215 552.639L300.936 551.101ZM321.653 551.89C319.794 552.972 317.56 552.524 314.795 551.551C313.499 551.095 312.006 550.494 310.62 550.048C309.199 549.591 307.71 549.23 306.229 549.23V551.23C307.404 551.23 308.66 551.518 310.007 551.952C311.388 552.397 312.684 552.929 314.132 553.438C316.855 554.396 319.928 555.209 322.66 553.618L321.653 551.89ZM306.23 6.67188C307.703 6.67188 309.182 6.31645 310.594 5.86577C311.97 5.42639 313.453 4.83479 314.74 4.38612C317.484 3.42955 319.706 2.98763 321.563 4.05792L322.562 2.32511C319.839 0.755837 316.788 1.55411 314.082 2.49761C312.644 2.99898 311.358 3.52238 309.986 3.96051C308.649 4.38732 307.399 4.67188 306.23 4.67188V6.67188ZM294.569 1C295.636 1 296.673 1.46588 297.77 2.22854C298.905 3.01805 299.879 3.94937 301.032 4.87835L302.287 3.32074C301.314 2.53732 300.108 1.41886 298.912 0.5867C297.677 -0.272306 296.232 -1 294.569 -1V1ZM271.247 1C272.314 1 273.351 1.46588 274.448 2.22854C275.583 3.01805 276.557 3.94937 277.71 4.87835L278.965 3.32074C277.992 2.53732 276.786 1.41886 275.59 0.5867C274.355 -0.272306 272.91 -1 271.247 -1V1ZM247.925 1C248.992 1 250.029 1.46588 251.126 2.22854C252.261 3.01806 253.235 3.94937 254.388 4.87836L255.643 3.32074C254.67 2.53733 253.464 1.41887 252.268 0.586704C251.033 -0.272303 249.588 -1 247.925 -1V1ZM224.603 1C225.67 1 226.708 1.46588 227.804 2.22854C228.939 3.01806 229.913 3.94937 231.067 4.87836L232.321 3.32074C231.348 2.53732 230.142 1.41886 228.946 0.586703C227.711 -0.272304 226.266 -1 224.603 -1V1ZM91.0388 551.101C89.9148 552.036 88.9464 552.981 87.8321 553.769C86.7506 554.535 85.7257 555 84.6709 555V557C86.3286 557 87.7649 556.267 88.9877 555.402C90.1778 554.559 91.3569 553.438 92.3181 552.639L91.0388 551.101ZM194.818 4.87836C195.971 3.94937 196.946 3.01806 198.081 2.22854C199.177 1.46588 200.214 1 201.281 1V-1C199.618 -1 198.173 -0.272303 196.939 0.586704C195.742 1.41887 194.536 2.53733 193.563 3.32074L194.818 4.87836ZM107.993 555C106.938 555 105.913 554.535 104.831 553.769C103.717 552.981 102.749 552.036 101.625 551.101L100.346 552.639C101.307 553.438 102.486 554.559 103.676 555.402C104.899 556.267 106.335 557 107.993 557V555ZM177.959 1C179.026 1 180.064 1.46588 181.16 2.22854C182.295 3.01806 183.269 3.94937 184.423 4.87836L185.677 3.32074C184.705 2.53732 183.499 1.41886 182.302 0.586703C181.067 -0.272304 179.622 -1 177.959 -1V1ZM114.361 551.101C113.237 552.036 112.268 552.981 111.154 553.769C110.072 554.535 109.048 555 107.993 555V557C109.651 557 111.087 556.267 112.31 555.402C113.5 554.559 114.679 553.438 115.64 552.639L114.361 551.101ZM171.496 4.87836C172.65 3.94937 173.624 3.01806 174.759 2.22854C175.855 1.46588 176.892 1 177.959 1V-1C176.297 -1 174.852 -0.272303 173.617 0.586704C172.42 1.41887 171.214 2.53733 170.242 3.32074L171.496 4.87836ZM131.315 555C130.26 555 129.235 554.535 128.153 553.769C127.039 552.981 126.071 552.036 124.947 551.101L123.667 552.639C124.629 553.438 125.808 554.559 126.998 555.402C128.221 556.267 129.657 557 131.315 557V555ZM154.638 1C155.705 1 156.742 1.46588 157.838 2.22854C158.973 3.01806 159.947 3.94937 161.101 4.87836L162.355 3.32074C161.383 2.53732 160.177 1.41886 158.98 0.586703C157.745 -0.272304 156.3 -1 154.638 -1V1ZM154.637 555C153.582 555 152.557 554.535 151.475 553.769C150.361 552.981 149.393 552.036 148.269 551.101L146.989 552.639C147.951 553.438 149.13 554.559 150.32 555.402C151.542 556.267 152.979 557 154.637 557V555ZM131.316 1C132.383 1 133.42 1.46588 134.516 2.22854C135.651 3.01805 136.626 3.94937 137.779 4.87835L139.033 3.32074C138.061 2.53732 136.855 1.41886 135.658 0.586703C134.424 -0.272304 132.979 -1 131.316 -1V1ZM184.326 551.101C183.202 552.036 182.234 552.981 181.12 553.769C180.038 554.535 179.013 555 177.958 555V557C179.616 557 181.053 556.267 182.275 555.402C183.465 554.559 184.644 553.438 185.606 552.639L184.326 551.101ZM101.53 4.87834C102.684 3.94936 103.658 3.01805 104.793 2.22854C105.889 1.46587 106.927 1 107.994 1V-1C106.331 -1 104.886 -0.272307 103.651 0.586697C102.455 1.41886 101.249 2.53731 100.276 3.32073L101.53 4.87834ZM264.784 4.87835C265.937 3.94937 266.911 3.01805 268.046 2.22854C269.143 1.46588 270.18 1 271.247 1V-1C269.584 -1 268.139 -0.272306 266.904 0.586701C265.708 1.41886 264.502 2.53732 263.529 3.32074L264.784 4.87835ZM201.28 555C200.226 555 199.201 554.535 198.119 553.769C197.005 552.981 196.036 552.036 194.912 551.101L193.633 552.639C194.594 553.438 195.773 554.559 196.963 555.402C198.186 556.267 199.623 557 201.28 557V555ZM84.6718 1C85.7389 1 86.7761 1.46587 87.8725 2.22854C89.0075 3.01805 89.9817 3.94936 91.1351 4.87835L92.3897 3.32073C91.417 2.53731 90.2109 1.41886 89.0146 0.586698C87.7797 -0.272307 86.3347 -1 84.6718 -1V1ZM230.97 551.101C229.846 552.036 228.878 552.981 227.764 553.769C226.682 554.535 225.657 555 224.602 555V557C226.26 557 227.696 556.267 228.919 555.402C230.109 554.559 231.288 553.438 232.249 552.639L230.97 551.101ZM54.8866 4.87836C56.04 3.94937 57.0142 3.01805 58.1492 2.22854C59.2456 1.46588 60.2829 1 61.3499 1V-1C59.687 -1 58.242 -0.272305 57.0071 0.586702C55.8108 1.41886 54.6047 2.53732 53.632 3.32074L54.8866 4.87836ZM207.648 551.101C206.524 552.036 205.556 552.981 204.442 553.769C203.36 554.535 202.335 555 201.28 555V557C202.938 557 204.374 556.267 205.597 555.402C206.787 554.559 207.966 553.438 208.928 552.639L207.648 551.101ZM78.2085 4.87834C79.3619 3.94936 80.3362 3.01805 81.4711 2.22854C82.5675 1.46587 83.6048 1 84.6718 1V-1C83.0089 -1 81.5639 -0.272307 80.3291 0.586697C79.1328 1.41886 77.9267 2.53731 76.954 3.32073L78.2085 4.87834ZM161.005 551.101C159.881 552.036 158.912 552.981 157.798 553.769C156.716 554.535 155.691 555 154.637 555V557C156.294 557 157.731 556.267 158.953 555.402C160.143 554.559 161.323 553.438 162.284 552.639L161.005 551.101ZM124.852 4.87834C126.006 3.94936 126.98 3.01805 128.115 2.22854C129.211 1.46587 130.249 1 131.316 1V-1C129.653 -1 128.208 -0.272307 126.973 0.586697C125.777 1.41886 124.57 2.53731 123.598 3.32073L124.852 4.87834ZM67.7169 551.101C66.5929 552.036 65.6246 552.981 64.5102 553.769C63.4287 554.535 62.4038 555 61.3489 555V557C63.0067 557 64.443 556.267 65.6658 555.402C66.8559 554.559 68.035 553.438 68.9962 552.639L67.7169 551.101ZM218.14 4.87836C219.293 3.94937 220.268 3.01806 221.403 2.22854C222.499 1.46588 223.536 1 224.603 1V-1C222.94 -1 221.495 -0.272303 220.26 0.586704C219.064 1.41887 217.858 2.53733 216.885 3.32074L218.14 4.87836ZM247.924 555C246.869 555 245.844 554.535 244.763 553.769C243.649 552.981 242.68 552.036 241.556 551.101L240.277 552.639C241.238 553.438 242.417 554.559 243.607 555.402C244.83 556.267 246.266 557 247.924 557V555ZM38.028 1C39.0951 1 40.1323 1.46588 41.2287 2.22854C42.3637 3.01805 43.3379 3.94937 44.4913 4.87835L45.7459 3.32074C44.7732 2.53732 43.5671 1.41886 42.3708 0.586702C41.1359 -0.272305 39.6909 -1 38.028 -1V1ZM137.683 551.101C136.559 552.036 135.59 552.981 134.476 553.769C133.394 554.535 132.369 555 131.315 555V557C132.972 557 134.409 556.267 135.632 555.402C136.822 554.559 138.001 553.438 138.962 552.639L137.683 551.101ZM148.174 4.87836C149.328 3.94937 150.302 3.01806 151.437 2.22854C152.533 1.46588 153.57 1 154.638 1V-1C152.975 -1 151.53 -0.272303 150.295 0.586704C149.098 1.41887 147.892 2.53733 146.92 3.32074L148.174 4.87836ZM241.462 4.87836C242.615 3.94937 243.589 3.01806 244.724 2.22854C245.821 1.46588 246.858 1 247.925 1V-1C246.262 -1 244.817 -0.272303 243.582 0.586704C242.386 1.41887 241.18 2.53733 240.207 3.32074L241.462 4.87836ZM224.602 555C223.547 555 222.523 554.535 221.441 553.769C220.327 552.981 219.358 552.036 218.234 551.101L216.955 552.639C217.916 553.438 219.095 554.559 220.285 555.402C221.508 556.267 222.944 557 224.602 557V555ZM61.3499 1C62.417 1 63.4542 1.46588 64.5506 2.22854C65.6856 3.01805 66.6598 3.94937 67.8133 4.87836L69.0678 3.32074C68.0951 2.53732 66.889 1.41886 65.6927 0.586702C64.4578 -0.272305 63.0128 -1 61.3499 -1V1ZM288.106 4.87836C289.259 3.94937 290.233 3.01805 291.368 2.22854C292.465 1.46588 293.502 1 294.569 1V-1C292.906 -1 291.461 -0.272306 290.226 0.586701C289.03 1.41886 287.824 2.53732 286.851 3.32074L288.106 4.87836ZM177.958 555C176.904 555 175.879 554.535 174.797 553.769C173.683 552.981 172.714 552.036 171.59 551.101L170.311 552.639C171.272 553.438 172.452 554.559 173.642 555.402C174.864 556.267 176.301 557 177.958 557V555ZM107.994 1C109.061 1 110.098 1.46587 111.194 2.22854C112.329 3.01805 113.304 3.94936 114.457 4.87835L115.712 3.32073C114.739 2.53731 113.533 1.41886 112.337 0.586698C111.102 -0.272307 109.657 -1 107.994 -1V1ZM84.6709 555C83.616 555 82.5911 554.535 81.5096 553.769C80.3953 552.981 79.4269 552.036 78.3029 551.101L77.0237 552.639C77.9848 553.438 79.1639 554.559 80.354 555.402C81.5768 556.267 83.0131 557 84.6709 557V555ZM201.281 1C202.348 1 203.386 1.46588 204.482 2.22854C205.617 3.01806 206.591 3.94937 207.745 4.87836L208.999 3.32074C208.026 2.53732 206.82 1.41886 205.624 0.586703C204.389 -0.272304 202.944 -1 201.281 -1V1ZM31.5647 4.87832C32.7181 3.94934 33.6923 3.01803 34.8273 2.22853C35.9237 1.46587 36.9609 1 38.028 1V-1C36.3651 -1 34.9201 -0.272312 33.6852 0.586687C32.4889 1.41884 31.2829 2.53729 30.3102 3.3207L31.5647 4.87832Z" fill="#EFEEF3" mask="url(#path-1-inside-1_823_43261)"/>
</g>
</g>
<defs>
<filter id="filter0_d_823_43261" x="-12" y="-10" width="358.096" height="580" filterUnits="userSpaceOnUse" color-interpolation-filters="sRGB">
<feFlood flood-opacity="0" result="BackgroundImageFix"/>
<feColorMatrix in="SourceAlpha" type="matrix" values="0 0 0 0 0 0 0 0 0 0 0 0 0 0 0 0 0 0 127 0" result="hardAlpha"/>
<feOffset dy="2"/>
<feGaussianBlur stdDeviation="6"/>
<feComposite in2="hardAlpha" operator="out"/>
<feColorMatrix type="matrix" values="0 0 0 0 0.25098 0 0 0 0 0.25098 0 0 0 0 0.25098 0 0 0 0.12 0"/>
<feBlend mode="normal" in2="BackgroundImageFix" result="effect1_dropShadow_823_43261"/>
<feBlend mode="normal" in="SourceGraphic" in2="effect1_dropShadow_823_43261" result="shape"/>
</filter>
<clipPath id="clip0_823_43261">
<rect width="335" height="45" fill="white"/>
</clipPath>
</defs>
</svg>
