<svg width="40" height="40" viewBox="0 0 40 40" fill="none" xmlns="http://www.w3.org/2000/svg">
<circle cx="20" cy="20" r="20" fill="#F7F6F9"/>
<path d="M15.1652 13.9871L15.1379 14.021C14.6415 14.6263 14.3576 15.3777 14.3288 16.16C14.2778 17.0172 14.5414 17.8635 15.0701 18.5402L15.104 18.581C15.6026 19.1716 16.2441 19.6247 16.9676 19.8969C17.732 20.1837 18.5176 20.4112 19.3172 20.577C19.9225 20.7062 20.3101 20.798 20.6772 20.9171C21.1295 21.026 21.5102 21.128 21.8401 21.2231C22.2547 21.3421 22.6509 21.5184 23.0166 21.7468C23.254 21.895 23.4559 22.0936 23.6084 22.3281C23.7735 22.6204 23.857 22.9515 23.8499 23.2871V23.3348C23.8627 23.738 23.7431 24.1344 23.5097 24.4636C23.1843 24.8901 22.7426 25.2136 22.2379 25.3953C21.5085 25.6752 20.7303 25.8059 19.9495 25.7796H19.885C19.0351 25.8078 18.1905 25.6353 17.4196 25.2762C17.0137 25.0644 16.6641 24.7592 16.3994 24.3853L16.3884 24.3699C16.0678 23.9202 15.4433 23.8156 14.9936 24.1363L14.9626 24.1584C14.5129 24.4791 14.4083 25.1035 14.7289 25.5531L14.74 25.5687C15.2032 26.2169 15.8154 26.7442 16.5253 27.1056C17.3351 27.483 18.2056 27.7131 19.096 27.7856V29.5401C19.096 30.0924 19.5437 30.5401 20.096 30.5401H20.1363C20.6886 30.5401 21.1363 30.0924 21.1363 29.5401L21.1361 27.7517C21.7623 27.6784 22.3769 27.5276 22.9656 27.3029C23.834 26.983 24.5918 26.4199 25.1487 25.6808C25.6522 24.9913 25.9141 24.1544 25.8935 23.3006C25.9058 22.6049 25.7334 21.9184 25.3935 21.3115C25.0756 20.7918 24.643 20.352 24.1285 20.0261C23.5998 19.6952 23.0277 19.44 22.4284 19.2678C22.0678 19.1625 21.6599 19.0537 21.2009 18.9277C20.8133 18.8224 20.3949 18.7237 19.7422 18.5876C19.0479 18.4429 18.3658 18.2453 17.7018 17.996C17.3145 17.8511 16.9696 17.6115 16.6987 17.2989C16.4705 17.0098 16.3579 16.6464 16.3825 16.2788V16.1768C16.4015 15.8582 16.5206 15.5536 16.7224 15.3063C17.0348 14.945 17.439 14.6746 17.8923 14.5242C18.5863 14.2965 19.3147 14.1931 20.0448 14.2183C20.5901 14.218 21.1333 14.2901 21.6599 14.4324C22.0365 14.5368 22.3921 14.7059 22.7106 14.9322C22.9255 15.0821 23.1103 15.2714 23.2547 15.4898L23.2669 15.5081C23.5721 15.9677 24.1919 16.0933 24.6519 15.7888L24.6844 15.7673C25.1454 15.4621 25.2713 14.8408 24.9654 14.3802L24.9549 14.3644C24.6705 13.9329 24.3072 13.5591 23.8838 13.2626C23.3743 12.9021 22.8057 12.6329 22.204 12.467C21.8515 12.3691 21.4924 12.2963 21.1295 12.2493V10.4575C21.1295 9.90524 20.6818 9.45752 20.1295 9.45752H20.0892C19.5369 9.45752 19.0892 9.90523 19.0892 10.4575V12.2153C18.4601 12.2711 17.8394 12.3989 17.2393 12.5963C16.4355 12.8645 15.7188 13.3452 15.1652 13.9871Z" fill="url(#paint0_linear_15424_4190)"/>
<defs>
<linearGradient id="paint0_linear_15424_4190" x1="20.0215" y1="5.8086" x2="20.0215" y2="37.0271" gradientUnits="userSpaceOnUse">
<stop stop-color="#E51E28"/>
<stop offset="1" stop-color="#FFD6D8"/>
</linearGradient>
</defs>
</svg>
