<svg width="40" height="40" viewBox="0 0 40 40" fill="none" xmlns="http://www.w3.org/2000/svg">
<circle cx="20" cy="20" r="20" fill="#F7F6F9"/>
<path fill-rule="evenodd" clip-rule="evenodd" d="M13.9305 9.80546C14.4462 9.28973 15.1457 9 15.875 9H24.125C24.8543 9 25.5538 9.28973 26.0695 9.80546C26.5853 10.3212 26.875 11.0207 26.875 11.75V28.25C26.875 28.9793 26.5853 29.6788 26.0695 30.1945C25.5538 30.7103 24.8543 31 24.125 31H15.875C15.1457 31 14.4462 30.7103 13.9305 30.1945C13.4147 29.6788 13.125 28.9793 13.125 28.25V11.75C13.125 11.0207 13.4147 10.3212 13.9305 9.80546ZM17.5 10C17.2239 10 17 10.2239 17 10.5C17 10.7761 17.2239 11 17.5 11H22.5C22.7761 11 23 10.7761 23 10.5C23 10.2239 22.7761 10 22.5 10H17.5ZM19.5 28C19.2239 28 19 28.2239 19 28.5C19 28.7761 19.2239 29 19.5 29H20.5C20.7761 29 21 28.7761 21 28.5C21 28.2239 20.7761 28 20.5 28H19.5Z" fill="url(#paint0_linear_9863_80170)"/>
<defs>
<linearGradient id="paint0_linear_9863_80170" x1="20" y1="5.19231" x2="20" y2="37.7692" gradientUnits="userSpaceOnUse">
<stop stop-color="#E51E28"/>
<stop offset="1" stop-color="#FFD6D8"/>
</linearGradient>
</defs>
</svg>
