<svg width="40" height="40" viewBox="0 0 40 40" fill="none" xmlns="http://www.w3.org/2000/svg">
<circle cx="20" cy="20" r="20" fill="#F7F6F9"/>
<path d="M28.4863 19.8638L20.4414 11.8247C20.3835 11.7667 20.3147 11.7206 20.2389 11.6892C20.1632 11.6578 20.082 11.6416 20 11.6416C19.918 11.6416 19.8368 11.6578 19.7611 11.6892C19.6853 11.7206 19.6165 11.7667 19.5586 11.8247L11.5137 19.8638C11.2793 20.0981 11.1465 20.4165 11.1465 20.7485C11.1465 21.438 11.707 21.9985 12.3965 21.9985H13.2441V27.7348C13.2441 28.0806 13.5234 28.3598 13.8691 28.3598H18.75V23.9848H20.9375V28.3598H26.1309C26.4766 28.3598 26.7559 28.0806 26.7559 27.7348V21.9985H27.6035C27.9355 21.9985 28.2539 21.8677 28.4883 21.6313C28.9746 21.1431 28.9746 20.352 28.4863 19.8638Z" fill="url(#paint0_linear_15424_4271)"/>
<defs>
<linearGradient id="paint0_linear_15424_4271" x1="19.9996" y1="8.74806" x2="19.9996" y2="33.5039" gradientUnits="userSpaceOnUse">
<stop stop-color="#E51E28"/>
<stop offset="1" stop-color="#FFD6D8"/>
</linearGradient>
</defs>
</svg>
